<?xml version="1.0" encoding="UTF-8"?>
<svg xmlns="http://www.w3.org/2000/svg" width="453" height="69">
   <defs>
      <style type="text/css">
    @namespace "http://www.w3.org/2000/svg";
    .line                 {fill: none; stroke: #000033; stroke-width: 1;}
    .bold-line            {stroke: #E0E0FF; shape-rendering: crispEdges; stroke-width: 2;}
    .thin-line            {stroke: #00001F; shape-rendering: crispEdges}
    .filled               {fill: #000033; stroke: none;}
    text.terminal         {font-family: Verdana, Sans-serif;
                            font-size: 12px;
                            fill: #E0E0FF;
                            font-weight: bold;
                          }
    text.nonterminal      {font-family: Verdana, Sans-serif;
                            font-size: 12px;
                            fill: #00001A;
                            font-weight: normal;
                          }
    text.regexp           {font-family: Verdana, Sans-serif;
                            font-size: 12px;
                            fill: #00001F;
                            font-weight: normal;
                          }
    rect, circle, polygon {fill: #000033; stroke: #000033;}
    rect.terminal         {fill: #4D4DFF; stroke: #000033; stroke-width: 1;}
    rect.nonterminal      {fill: #9E9EFF; stroke: #000033; stroke-width: 1;}
    rect.text             {fill: none; stroke: none;}
    polygon.regexp        {fill: #C7C7FF; stroke: #000033; stroke-width: 1;}
  </style>
   </defs>
   <polygon points="9 33 1 29 1 37"/>
   <polygon points="17 33 9 29 9 37"/>
   <a xmlns:xlink="http://www.w3.org/1999/xlink"
      xlink:href="#leftHandSide"
      xlink:title="leftHandSide">
      <rect x="71" y="19" width="100" height="32"/>
      <rect x="69" y="17" width="100" height="32" class="nonterminal"/>
      <text class="nonterminal" x="79" y="37">leftHandSide</text>
   </a>
   <rect x="191" y="19" width="30" height="32" rx="10"/>
   <rect x="189"
         y="17"
         width="30"
         height="32"
         class="terminal"
         rx="10"/>
   <text class="terminal" x="199" y="37">=</text>
   <a xmlns:xlink="http://www.w3.org/1999/xlink"
      xlink:href="#logicalOrExpression"
      xlink:title="logicalOrExpression">
      <rect x="281" y="19" width="144" height="32"/>
      <rect x="279" y="17" width="144" height="32" class="nonterminal"/>
      <text class="nonterminal" x="289" y="37">logicalOrExpression</text>
   </a>
   <path class="line"
         d="m17 33 h2 m40 0 h10 m100 0 h10 m0 0 h10 m30 0 h10 m-190 0 l20 0 m-1 0 q-9 0 -9 -10 l0 -12 q0 -10 10 -10 m170 32 l20 0 m-20 0 q10 0 10 -10 l0 -12 q0 -10 -10 -10 m-170 0 h10 m0 0 h160 m-210 32 h20 m210 0 h20 m-250 0 q10 0 10 10 m230 0 q0 -10 10 -10 m-240 10 v14 m230 0 v-14 m-230 14 q0 10 10 10 m210 0 q10 0 10 -10 m-220 10 h10 m0 0 h200 m20 -34 h10 m144 0 h10 m3 0 h-3"/>
   <polygon points="443 33 451 29 451 37"/>
   <polygon points="443 33 435 29 435 37"/>
</svg>
