<?xml version="1.0" encoding="UTF-8"?>
<svg xmlns="http://www.w3.org/2000/svg" width="473" height="113">
   <defs>
      <style type="text/css">
    @namespace "http://www.w3.org/2000/svg";
    .line                 {fill: none; stroke: #000033; stroke-width: 1;}
    .bold-line            {stroke: #E0E0FF; shape-rendering: crispEdges; stroke-width: 2;}
    .thin-line            {stroke: #00001F; shape-rendering: crispEdges}
    .filled               {fill: #000033; stroke: none;}
    text.terminal         {font-family: Verdana, Sans-serif;
                            font-size: 12px;
                            fill: #E0E0FF;
                            font-weight: bold;
                          }
    text.nonterminal      {font-family: Verdana, Sans-serif;
                            font-size: 12px;
                            fill: #00001A;
                            font-weight: normal;
                          }
    text.regexp           {font-family: Verdana, Sans-serif;
                            font-size: 12px;
                            fill: #00001F;
                            font-weight: normal;
                          }
    rect, circle, polygon {fill: #000033; stroke: #000033;}
    rect.terminal         {fill: #4D4DFF; stroke: #000033; stroke-width: 1;}
    rect.nonterminal      {fill: #9E9EFF; stroke: #000033; stroke-width: 1;}
    rect.text             {fill: none; stroke: none;}
    polygon.regexp        {fill: #C7C7FF; stroke: #000033; stroke-width: 1;}
  </style>
   </defs>
   <polygon points="9 33 1 29 1 37"/>
   <polygon points="17 33 9 29 9 37"/>
   <a xmlns:xlink="http://www.w3.org/1999/xlink"
      xlink:href="#IDENTIFIER"
      xlink:title="IDENTIFIER">
      <rect x="31" y="19" width="92" height="32"/>
      <rect x="29" y="17" width="92" height="32" class="nonterminal"/>
      <text class="nonterminal" x="39" y="37">IDENTIFIER</text>
   </a>
   <rect x="203" y="19" width="24" height="32" rx="10"/>
   <rect x="201"
         y="17"
         width="24"
         height="32"
         class="terminal"
         rx="10"/>
   <text class="terminal" x="211" y="37">.</text>
   <a xmlns:xlink="http://www.w3.org/1999/xlink"
      xlink:href="#IDENTIFIER"
      xlink:title="IDENTIFIER">
      <rect x="247" y="19" width="92" height="32"/>
      <rect x="245" y="17" width="92" height="32" class="nonterminal"/>
      <text class="nonterminal" x="255" y="37">IDENTIFIER</text>
   </a>
   <rect x="203" y="63" width="26" height="32" rx="10"/>
   <rect x="201"
         y="61"
         width="26"
         height="32"
         class="terminal"
         rx="10"/>
   <text class="terminal" x="211" y="81">[</text>
   <a xmlns:xlink="http://www.w3.org/1999/xlink"
      xlink:href="#expression"
      xlink:title="expression">
      <rect x="249" y="63" width="90" height="32"/>
      <rect x="247" y="61" width="90" height="32" class="nonterminal"/>
      <text class="nonterminal" x="257" y="81">expression</text>
   </a>
   <rect x="359" y="63" width="26" height="32" rx="10"/>
   <rect x="357"
         y="61"
         width="26"
         height="32"
         class="terminal"
         rx="10"/>
   <text class="terminal" x="367" y="81">]</text>
   <path class="line"
         d="m17 33 h2 m0 0 h10 m92 0 h10 m60 0 h10 m24 0 h10 m0 0 h10 m92 0 h10 m0 0 h46 m-222 0 h20 m202 0 h20 m-242 0 q10 0 10 10 m222 0 q0 -10 10 -10 m-232 10 v24 m222 0 v-24 m-222 24 q0 10 10 10 m202 0 q10 0 10 -10 m-212 10 h10 m26 0 h10 m0 0 h10 m90 0 h10 m0 0 h10 m26 0 h10 m-242 -44 l20 0 m-1 0 q-9 0 -9 -10 l0 -12 q0 -10 10 -10 m242 32 l20 0 m-20 0 q10 0 10 -10 l0 -12 q0 -10 -10 -10 m-242 0 h10 m0 0 h232 m-282 32 h20 m282 0 h20 m-322 0 q10 0 10 10 m302 0 q0 -10 10 -10 m-312 10 v58 m302 0 v-58 m-302 58 q0 10 10 10 m282 0 q10 0 10 -10 m-292 10 h10 m0 0 h272 m23 -78 h-3"/>
   <polygon points="463 33 471 29 471 37"/>
   <polygon points="463 33 455 29 455 37"/>
</svg>
