<?xml version="1.0" encoding="UTF-8"?>
<svg xmlns="http://www.w3.org/2000/svg" width="335" height="157">
   <defs>
      <style type="text/css">
    @namespace "http://www.w3.org/2000/svg";
    .line                 {fill: none; stroke: #000033; stroke-width: 1;}
    .bold-line            {stroke: #E0E0FF; shape-rendering: crispEdges; stroke-width: 2;}
    .thin-line            {stroke: #00001F; shape-rendering: crispEdges}
    .filled               {fill: #000033; stroke: none;}
    text.terminal         {font-family: Verdana, Sans-serif;
                            font-size: 12px;
                            fill: #E0E0FF;
                            font-weight: bold;
                          }
    text.nonterminal      {font-family: Verdana, Sans-serif;
                            font-size: 12px;
                            fill: #00001A;
                            font-weight: normal;
                          }
    text.regexp           {font-family: Verdana, Sans-serif;
                            font-size: 12px;
                            fill: #00001F;
                            font-weight: normal;
                          }
    rect, circle, polygon {fill: #000033; stroke: #000033;}
    rect.terminal         {fill: #4D4DFF; stroke: #000033; stroke-width: 1;}
    rect.nonterminal      {fill: #9E9EFF; stroke: #000033; stroke-width: 1;}
    rect.text             {fill: none; stroke: none;}
    polygon.regexp        {fill: #C7C7FF; stroke: #000033; stroke-width: 1;}
  </style>
   </defs>
   <polygon points="9 17 1 13 1 21"/>
   <polygon points="17 17 9 13 9 21"/>
   <rect x="51" y="3" width="24" height="32" rx="10"/>
   <rect x="49"
         y="1"
         width="24"
         height="32"
         class="terminal"
         rx="10"/>
   <text class="terminal" x="59" y="21">.</text>
   <a xmlns:xlink="http://www.w3.org/1999/xlink"
      xlink:href="#IDENTIFIER"
      xlink:title="IDENTIFIER">
      <rect x="95" y="3" width="92" height="32"/>
      <rect x="93" y="1" width="92" height="32" class="nonterminal"/>
      <text class="nonterminal" x="103" y="21">IDENTIFIER</text>
   </a>
   <rect x="51" y="47" width="26" height="32" rx="10"/>
   <rect x="49"
         y="45"
         width="26"
         height="32"
         class="terminal"
         rx="10"/>
   <text class="terminal" x="59" y="65">[</text>
   <a xmlns:xlink="http://www.w3.org/1999/xlink"
      xlink:href="#expression"
      xlink:title="expression">
      <rect x="97" y="47" width="90" height="32"/>
      <rect x="95" y="45" width="90" height="32" class="nonterminal"/>
      <text class="nonterminal" x="105" y="65">expression</text>
   </a>
   <rect x="207" y="47" width="26" height="32" rx="10"/>
   <rect x="205"
         y="45"
         width="26"
         height="32"
         class="terminal"
         rx="10"/>
   <text class="terminal" x="215" y="65">]</text>
   <rect x="51" y="91" width="26" height="32" rx="10"/>
   <rect x="49"
         y="89"
         width="26"
         height="32"
         class="terminal"
         rx="10"/>
   <text class="terminal" x="59" y="109">(</text>
   <a xmlns:xlink="http://www.w3.org/1999/xlink"
      xlink:href="#argumentList"
      xlink:title="argumentList">
      <rect x="117" y="123" width="104" height="32"/>
      <rect x="115" y="121" width="104" height="32" class="nonterminal"/>
      <text class="nonterminal" x="125" y="141">argumentList</text>
   </a>
   <rect x="261" y="91" width="26" height="32" rx="10"/>
   <rect x="259"
         y="89"
         width="26"
         height="32"
         class="terminal"
         rx="10"/>
   <text class="terminal" x="269" y="109">)</text>
   <path class="line"
         d="m17 17 h2 m20 0 h10 m24 0 h10 m0 0 h10 m92 0 h10 m0 0 h100 m-276 0 h20 m256 0 h20 m-296 0 q10 0 10 10 m276 0 q0 -10 10 -10 m-286 10 v24 m276 0 v-24 m-276 24 q0 10 10 10 m256 0 q10 0 10 -10 m-266 10 h10 m26 0 h10 m0 0 h10 m90 0 h10 m0 0 h10 m26 0 h10 m0 0 h54 m-266 -10 v20 m276 0 v-20 m-276 20 v24 m276 0 v-24 m-276 24 q0 10 10 10 m256 0 q10 0 10 -10 m-266 10 h10 m26 0 h10 m20 0 h10 m0 0 h114 m-144 0 h20 m124 0 h20 m-164 0 q10 0 10 10 m144 0 q0 -10 10 -10 m-154 10 v12 m144 0 v-12 m-144 12 q0 10 10 10 m124 0 q10 0 10 -10 m-134 10 h10 m104 0 h10 m20 -32 h10 m26 0 h10 m23 -88 h-3"/>
   <polygon points="325 17 333 13 333 21"/>
   <polygon points="325 17 317 13 317 21"/>
</svg>
