<?xml version="1.0" encoding="UTF-8"?>
<svg xmlns="http://www.w3.org/2000/svg" width="253" height="115">
   <defs>
      <style type="text/css">
    @namespace "http://www.w3.org/2000/svg";
    .line                 {fill: none; stroke: #000033; stroke-width: 1;}
    .bold-line            {stroke: #E0E0FF; shape-rendering: crispEdges; stroke-width: 2;}
    .thin-line            {stroke: #00001F; shape-rendering: crispEdges}
    .filled               {fill: #000033; stroke: none;}
    text.terminal         {font-family: Verdana, Sans-serif;
                            font-size: 12px;
                            fill: #E0E0FF;
                            font-weight: bold;
                          }
    text.nonterminal      {font-family: Verdana, Sans-serif;
                            font-size: 12px;
                            fill: #00001A;
                            font-weight: normal;
                          }
    text.regexp           {font-family: Verdana, Sans-serif;
                            font-size: 12px;
                            fill: #00001F;
                            font-weight: normal;
                          }
    rect, circle, polygon {fill: #000033; stroke: #000033;}
    rect.terminal         {fill: #4D4DFF; stroke: #000033; stroke-width: 1;}
    rect.nonterminal      {fill: #9E9EFF; stroke: #000033; stroke-width: 1;}
    rect.text             {fill: none; stroke: none;}
    polygon.regexp        {fill: #C7C7FF; stroke: #000033; stroke-width: 1;}
  </style>
   </defs>
   <polygon points="9 95 1 91 1 99"/>
   <polygon points="17 95 9 91 9 99"/>
   <rect x="31" y="81" width="26" height="32" rx="10"/>
   <rect x="29"
         y="79"
         width="26"
         height="32"
         class="terminal"
         rx="10"/>
   <text class="terminal" x="39" y="99">"</text>
   <a xmlns:xlink="http://www.w3.org/1999/xlink"
      xlink:href="#ESC"
      xlink:title="ESC">
      <rect x="97" y="47" width="44" height="32"/>
      <rect x="95" y="45" width="44" height="32" class="nonterminal"/>
      <text class="nonterminal" x="105" y="65">ESC</text>
   </a>
   <polygon points="97 19 104 3 152 3 159 19 152 35 104 35"/>
   <polygon points="95 17 102 1 150 1 157 17 150 33 102 33" class="regexp"/>
   <text class="regexp" x="110" y="21">[^"\]</text>
   <rect x="199" y="81" width="26" height="32" rx="10"/>
   <rect x="197"
         y="79"
         width="26"
         height="32"
         class="terminal"
         rx="10"/>
   <text class="terminal" x="207" y="99">"</text>
   <path class="line"
         d="m17 95 h2 m0 0 h10 m26 0 h10 m20 0 h10 m0 0 h72 m-102 0 l20 0 m-1 0 q-9 0 -9 -10 l0 -14 q0 -10 10 -10 m82 34 l20 0 m-20 0 q10 0 10 -10 l0 -14 q0 -10 -10 -10 m-82 0 h10 m44 0 h10 m0 0 h18 m-92 10 l0 -44 q0 -10 10 -10 m92 54 l0 -44 q0 -10 -10 -10 m-82 0 h10 m62 0 h10 m20 78 h10 m26 0 h10 m3 0 h-3"/>
   <polygon points="243 95 251 91 251 99"/>
   <polygon points="243 95 235 91 235 99"/>
</svg>
