<?xml version="1.0" encoding="UTF-8"?>
<svg xmlns="http://www.w3.org/2000/svg" width="293" height="115">
   <defs>
      <style type="text/css">
    @namespace "http://www.w3.org/2000/svg";
    .line                 {fill: none; stroke: #000033; stroke-width: 1;}
    .bold-line            {stroke: #E0E0FF; shape-rendering: crispEdges; stroke-width: 2;}
    .thin-line            {stroke: #00001F; shape-rendering: crispEdges}
    .filled               {fill: #000033; stroke: none;}
    text.terminal         {font-family: Verdana, Sans-serif;
                            font-size: 12px;
                            fill: #E0E0FF;
                            font-weight: bold;
                          }
    text.nonterminal      {font-family: Verdana, Sans-serif;
                            font-size: 12px;
                            fill: #00001A;
                            font-weight: normal;
                          }
    text.regexp           {font-family: Verdana, Sans-serif;
                            font-size: 12px;
                            fill: #00001F;
                            font-weight: normal;
                          }
    rect, circle, polygon {fill: #000033; stroke: #000033;}
    rect.terminal         {fill: #4D4DFF; stroke: #000033; stroke-width: 1;}
    rect.nonterminal      {fill: #9E9EFF; stroke: #000033; stroke-width: 1;}
    rect.text             {fill: none; stroke: none;}
    polygon.regexp        {fill: #C7C7FF; stroke: #000033; stroke-width: 1;}
  </style>
   </defs>
   <polygon points="9 95 1 91 1 99"/>
   <polygon points="17 95 9 91 9 99"/>
   <rect x="51" y="47" width="42" height="32" rx="10"/>
   <rect x="49"
         y="45"
         width="42"
         height="32"
         class="terminal"
         rx="10"/>
   <text class="terminal" x="59" y="65">not</text>
   <rect x="51" y="3" width="26" height="32" rx="10"/>
   <rect x="49"
         y="1"
         width="26"
         height="32"
         class="terminal"
         rx="10"/>
   <text class="terminal" x="59" y="21">-</text>
   <a xmlns:xlink="http://www.w3.org/1999/xlink"
      xlink:href="#postfixExpression"
      xlink:title="postfixExpression">
      <rect x="133" y="81" width="132" height="32"/>
      <rect x="131" y="79" width="132" height="32" class="nonterminal"/>
      <text class="nonterminal" x="141" y="99">postfixExpression</text>
   </a>
   <path class="line"
         d="m17 95 h2 m20 0 h10 m0 0 h52 m-82 0 l20 0 m-1 0 q-9 0 -9 -10 l0 -14 q0 -10 10 -10 m62 34 l20 0 m-20 0 q10 0 10 -10 l0 -14 q0 -10 -10 -10 m-62 0 h10 m42 0 h10 m-72 10 l0 -44 q0 -10 10 -10 m72 54 l0 -44 q0 -10 -10 -10 m-62 0 h10 m26 0 h10 m0 0 h16 m20 78 h10 m132 0 h10 m3 0 h-3"/>
   <polygon points="283 95 291 91 291 99"/>
   <polygon points="283 95 275 91 275 99"/>
</svg>
