<svg xmlns="http://www.w3.org/2000/svg" width="560" height="420" viewBox="0 0 560 420">
<style> .box{fill:#fff;stroke:#000;stroke-width:1.2;} .txt{font-family:monospace;font-size:12px;dominant-baseline:middle;text-anchor:middle;} .line{stroke:#000;stroke-width:1.2;fill:none;} </style>
<line class="line" x1="10" y1="30" x2="40" y2="30"/>
<path d="M 40,30 L 34.80384757729337,33.0 M 40,30 L 34.80384757729337,27.0" class="line"/>
<rect class="box" x="40" y="20" width="200" height="24" rx="6" ry="6"/>
<text class="txt" x="140.0" y="32.0">variableAssignment ;?</text>
<line class="line" x1="240" y1="32" x2="280" y2="32"/>
<path d="M 280,32 L 274.80384757729337,35.0 M 280,32 L 274.80384757729337,29.0" class="line"/>
<rect class="box" x="40" y="54" width="200" height="24" rx="6" ry="6"/>
<text class="txt" x="140.0" y="66.0">ifStatement</text>
<line class="line" x1="240" y1="66" x2="280" y2="66"/>
<path d="M 280,66 L 274.80384757729337,69.0 M 280,66 L 274.80384757729337,63.0" class="line"/>
<rect class="box" x="40" y="88" width="200" height="24" rx="6" ry="6"/>
<text class="txt" x="140.0" y="100.0">whileStatement</text>
<line class="line" x1="240" y1="100" x2="280" y2="100"/>
<path d="M 280,100 L 274.80384757729337,103.0 M 280,100 L 274.80384757729337,97.0" class="line"/>
<rect class="box" x="40" y="122" width="200" height="24" rx="6" ry="6"/>
<text class="txt" x="140.0" y="134.0">forEachStatement</text>
<line class="line" x1="240" y1="134" x2="280" y2="134"/>
<path d="M 280,134 L 274.80384757729337,137.0 M 280,134 L 274.80384757729337,131.0" class="line"/>
<rect class="box" x="40" y="156" width="200" height="24" rx="6" ry="6"/>
<text class="txt" x="140.0" y="168.0">forRangeStatement</text>
<line class="line" x1="240" y1="168" x2="280" y2="168"/>
<path d="M 280,168 L 274.80384757729337,171.0 M 280,168 L 274.80384757729337,165.0" class="line"/>
<rect class="box" x="40" y="190" width="200" height="24" rx="6" ry="6"/>
<text class="txt" x="140.0" y="202.0">breakStatement ;?</text>
<line class="line" x1="240" y1="202" x2="280" y2="202"/>
<path d="M 280,202 L 274.80384757729337,205.0 M 280,202 L 274.80384757729337,199.0" class="line"/>
<rect class="box" x="40" y="224" width="200" height="24" rx="6" ry="6"/>
<text class="txt" x="140.0" y="236.0">continueStatement ;?</text>
<line class="line" x1="240" y1="236" x2="280" y2="236"/>
<path d="M 280,236 L 274.80384757729337,239.0 M 280,236 L 274.80384757729337,233.0" class="line"/>
<rect class="box" x="40" y="258" width="200" height="24" rx="6" ry="6"/>
<text class="txt" x="140.0" y="270.0">returnStatement ;?</text>
<line class="line" x1="240" y1="270" x2="280" y2="270"/>
<path d="M 280,270 L 274.80384757729337,273.0 M 280,270 L 274.80384757729337,267.0" class="line"/>
<rect class="box" x="40" y="292" width="200" height="24" rx="6" ry="6"/>
<text class="txt" x="140.0" y="304.0">tryCatchStatement</text>
<line class="line" x1="240" y1="304" x2="280" y2="304"/>
<path d="M 280,304 L 274.80384757729337,307.0 M 280,304 L 274.80384757729337,301.0" class="line"/>
<rect class="box" x="40" y="326" width="200" height="24" rx="6" ry="6"/>
<text class="txt" x="140.0" y="338.0">throwStatement ;?</text>
<line class="line" x1="240" y1="338" x2="280" y2="338"/>
<path d="M 280,338 L 274.80384757729337,341.0 M 280,338 L 274.80384757729337,335.0" class="line"/>
<rect class="box" x="40" y="360" width="200" height="24" rx="6" ry="6"/>
<text class="txt" x="140.0" y="372.0">expressionStatement ;?</text>
<line class="line" x1="240" y1="372" x2="280" y2="372"/>
<path d="M 280,372 L 274.80384757729337,375.0 M 280,372 L 274.80384757729337,369.0" class="line"/>
<line class="line" x1="280" y1="32" x2="310" y2="32"/>
<path d="M 310,32 L 304.80384757729337,35.0 M 310,32 L 304.80384757729337,29.0" class="line"/>
<line class="line" x1="280" y1="372" x2="310" y2="372"/>
<path d="M 310,372 L 304.80384757729337,375.0 M 310,372 L 304.80384757729337,369.0" class="line"/>
</svg>