<?xml version="1.0" encoding="UTF-8"?>
<svg xmlns="http://www.w3.org/2000/svg" width="593" height="265">
   <defs>
      <style type="text/css">
    @namespace "http://www.w3.org/2000/svg";
    .line                 {fill: none; stroke: #000033; stroke-width: 1;}
    .bold-line            {stroke: #E0E0FF; shape-rendering: crispEdges; stroke-width: 2;}
    .thin-line            {stroke: #00001F; shape-rendering: crispEdges}
    .filled               {fill: #000033; stroke: none;}
    text.terminal         {font-family: Verdana, Sans-serif;
                            font-size: 12px;
                            fill: #E0E0FF;
                            font-weight: bold;
                          }
    text.nonterminal      {font-family: Verdana, Sans-serif;
                            font-size: 12px;
                            fill: #00001A;
                            font-weight: normal;
                          }
    text.regexp           {font-family: Verdana, Sans-serif;
                            font-size: 12px;
                            fill: #00001F;
                            font-weight: normal;
                          }
    rect, circle, polygon {fill: #000033; stroke: #000033;}
    rect.terminal         {fill: #4D4DFF; stroke: #000033; stroke-width: 1;}
    rect.nonterminal      {fill: #9E9EFF; stroke: #000033; stroke-width: 1;}
    rect.text             {fill: none; stroke: none;}
    polygon.regexp        {fill: #C7C7FF; stroke: #000033; stroke-width: 1;}
  </style>
   </defs>
   <polygon points="9 17 1 13 1 21"/>
   <polygon points="17 17 9 13 9 21"/>
   <a xmlns:xlink="http://www.w3.org/1999/xlink"
      xlink:href="#DIGITS"
      xlink:title="DIGITS">
      <rect x="31" y="3" width="64" height="32"/>
      <rect x="29" y="1" width="64" height="32" class="nonterminal"/>
      <text class="nonterminal" x="39" y="21">DIGITS</text>
   </a>
   <rect x="135" y="3" width="24" height="32" rx="10"/>
   <rect x="133"
         y="1"
         width="24"
         height="32"
         class="terminal"
         rx="10"/>
   <text class="terminal" x="143" y="21">.</text>
   <a xmlns:xlink="http://www.w3.org/1999/xlink"
      xlink:href="#DIGITS"
      xlink:title="DIGITS">
      <rect x="199" y="35" width="64" height="32"/>
      <rect x="197" y="33" width="64" height="32" class="nonterminal"/>
      <text class="nonterminal" x="207" y="53">DIGITS</text>
   </a>
   <rect x="303" y="35" width="28" height="32" rx="10"/>
   <rect x="301"
         y="33"
         width="28"
         height="32"
         class="terminal"
         rx="10"/>
   <text class="terminal" x="311" y="53">e</text>
   <rect x="303" y="79" width="28" height="32" rx="10"/>
   <rect x="301"
         y="77"
         width="28"
         height="32"
         class="terminal"
         rx="10"/>
   <text class="terminal" x="311" y="97">E</text>
   <rect x="391" y="67" width="30" height="32" rx="10"/>
   <rect x="389"
         y="65"
         width="30"
         height="32"
         class="terminal"
         rx="10"/>
   <text class="terminal" x="399" y="85">+</text>
   <rect x="391" y="111" width="26" height="32" rx="10"/>
   <rect x="389"
         y="109"
         width="26"
         height="32"
         class="terminal"
         rx="10"/>
   <text class="terminal" x="399" y="129">-</text>
   <rect x="155" y="155" width="28" height="32" rx="10"/>
   <rect x="153"
         y="153"
         width="28"
         height="32"
         class="terminal"
         rx="10"/>
   <text class="terminal" x="163" y="173">e</text>
   <rect x="155" y="199" width="28" height="32" rx="10"/>
   <rect x="153"
         y="197"
         width="28"
         height="32"
         class="terminal"
         rx="10"/>
   <text class="terminal" x="163" y="217">E</text>
   <rect x="243" y="187" width="30" height="32" rx="10"/>
   <rect x="241"
         y="185"
         width="30"
         height="32"
         class="terminal"
         rx="10"/>
   <text class="terminal" x="251" y="205">+</text>
   <rect x="243" y="231" width="26" height="32" rx="10"/>
   <rect x="241"
         y="229"
         width="26"
         height="32"
         class="terminal"
         rx="10"/>
   <text class="terminal" x="251" y="249">-</text>
   <a xmlns:xlink="http://www.w3.org/1999/xlink"
      xlink:href="#DIGITS"
      xlink:title="DIGITS">
      <rect x="501" y="3" width="64" height="32"/>
      <rect x="499" y="1" width="64" height="32" class="nonterminal"/>
      <text class="nonterminal" x="509" y="21">DIGITS</text>
   </a>
   <path class="line"
         d="m17 17 h2 m0 0 h10 m64 0 h10 m20 0 h10 m24 0 h10 m20 0 h10 m0 0 h252 m-282 0 h20 m262 0 h20 m-302 0 q10 0 10 10 m282 0 q0 -10 10 -10 m-292 10 v12 m282 0 v-12 m-282 12 q0 10 10 10 m262 0 q10 0 10 -10 m-272 10 h10 m64 0 h10 m20 0 h10 m28 0 h10 m-68 0 h20 m48 0 h20 m-88 0 q10 0 10 10 m68 0 q0 -10 10 -10 m-78 10 v24 m68 0 v-24 m-68 24 q0 10 10 10 m48 0 q10 0 10 -10 m-58 10 h10 m28 0 h10 m40 -44 h10 m0 0 h40 m-70 0 h20 m50 0 h20 m-90 0 q10 0 10 10 m70 0 q0 -10 10 -10 m-80 10 v12 m70 0 v-12 m-70 12 q0 10 10 10 m50 0 q10 0 10 -10 m-60 10 h10 m30 0 h10 m-60 -10 v20 m70 0 v-20 m-70 20 v24 m70 0 v-24 m-70 24 q0 10 10 10 m50 0 q10 0 10 -10 m-60 10 h10 m26 0 h10 m0 0 h4 m-326 -108 h20 m346 0 h20 m-386 0 q10 0 10 10 m366 0 q0 -10 10 -10 m-376 10 v132 m366 0 v-132 m-366 132 q0 10 10 10 m346 0 q10 0 10 -10 m-336 10 h10 m28 0 h10 m-68 0 h20 m48 0 h20 m-88 0 q10 0 10 10 m68 0 q0 -10 10 -10 m-78 10 v24 m68 0 v-24 m-68 24 q0 10 10 10 m48 0 q10 0 10 -10 m-58 10 h10 m28 0 h10 m40 -44 h10 m0 0 h40 m-70 0 h20 m50 0 h20 m-90 0 q10 0 10 10 m70 0 q0 -10 10 -10 m-80 10 v12 m70 0 v-12 m-70 12 q0 10 10 10 m50 0 q10 0 10 -10 m-60 10 h10 m30 0 h10 m-60 -10 v20 m70 0 v-20 m-70 20 v24 m70 0 v-24 m-70 24 q0 10 10 10 m50 0 q10 0 10 -10 m-60 10 h10 m26 0 h10 m0 0 h4 m20 -76 h168 m20 -152 h10 m64 0 h10 m3 0 h-3"/>
   <polygon points="583 17 591 13 591 21"/>
   <polygon points="583 17 575 13 575 21"/>
</svg>
