<?xml version="1.0" encoding="UTF-8"?>
<svg xmlns="http://www.w3.org/2000/svg" width="365" height="131">
   <defs>
      <style type="text/css">
    @namespace "http://www.w3.org/2000/svg";
    .line                 {fill: none; stroke: #000033; stroke-width: 1;}
    .bold-line            {stroke: #E0E0FF; shape-rendering: crispEdges; stroke-width: 2;}
    .thin-line            {stroke: #00001F; shape-rendering: crispEdges}
    .filled               {fill: #000033; stroke: none;}
    text.terminal         {font-family: Verdana, Sans-serif;
                            font-size: 12px;
                            fill: #E0E0FF;
                            font-weight: bold;
                          }
    text.nonterminal      {font-family: Verdana, Sans-serif;
                            font-size: 12px;
                            fill: #00001A;
                            font-weight: normal;
                          }
    text.regexp           {font-family: Verdana, Sans-serif;
                            font-size: 12px;
                            fill: #00001F;
                            font-weight: normal;
                          }
    rect, circle, polygon {fill: #000033; stroke: #000033;}
    rect.terminal         {fill: #4D4DFF; stroke: #000033; stroke-width: 1;}
    rect.nonterminal      {fill: #9E9EFF; stroke: #000033; stroke-width: 1;}
    rect.text             {fill: none; stroke: none;}
    polygon.regexp        {fill: #C7C7FF; stroke: #000033; stroke-width: 1;}
  </style>
   </defs>
   <polygon points="9 95 1 91 1 99"/>
   <polygon points="17 95 9 91 9 99"/>
   <polygon points="31 97 38 81 86 81 93 97 86 113 38 113"/>
   <polygon points="29 95 36 79 84 79 91 95 84 111 36 111" class="regexp"/>
   <text class="regexp" x="44" y="99">[0-9]</text>
   <polygon points="153 63 160 47 208 47 215 63 208 79 160 79"/>
   <polygon points="151 61 158 45 206 45 213 61 206 77 158 77" class="regexp"/>
   <text class="regexp" x="166" y="65">[0-9]</text>
   <rect x="153" y="3" width="28" height="32" rx="10"/>
   <rect x="151"
         y="1"
         width="28"
         height="32"
         class="terminal"
         rx="10"/>
   <text class="terminal" x="161" y="21">_</text>
   <polygon points="255 97 262 81 310 81 317 97 310 113 262 113"/>
   <polygon points="253 95 260 79 308 79 315 95 308 111 260 111" class="regexp"/>
   <text class="regexp" x="268" y="99">[0-9]</text>
   <path class="line"
         d="m17 95 h2 m0 0 h10 m62 0 h10 m40 0 h10 m0 0 h72 m-102 0 l20 0 m-1 0 q-9 0 -9 -10 l0 -14 q0 -10 10 -10 m82 34 l20 0 m-20 0 q10 0 10 -10 l0 -14 q0 -10 -10 -10 m-82 0 h10 m62 0 h10 m-92 10 l0 -44 q0 -10 10 -10 m92 54 l0 -44 q0 -10 -10 -10 m-82 0 h10 m28 0 h10 m0 0 h34 m20 78 h10 m62 0 h10 m-224 0 h20 m204 0 h20 m-244 0 q10 0 10 10 m224 0 q0 -10 10 -10 m-234 10 v14 m224 0 v-14 m-224 14 q0 10 10 10 m204 0 q10 0 10 -10 m-214 10 h10 m0 0 h194 m23 -34 h-3"/>
   <polygon points="355 95 363 91 363 99"/>
   <polygon points="355 95 347 91 347 99"/>
</svg>
