<?xml version="1.0" encoding="UTF-8"?>
<svg xmlns="http://www.w3.org/2000/svg" width="393" height="389">
   <defs>
      <style type="text/css">
    @namespace "http://www.w3.org/2000/svg";
    .line                 {fill: none; stroke: #332900; stroke-width: 1;}
    .bold-line            {stroke: #141000; shape-rendering: crispEdges; stroke-width: 2;}
    .thin-line            {stroke: #1F1800; shape-rendering: crispEdges}
    .filled               {fill: #332900; stroke: none;}
    text.terminal         {font-family: Verdana, Sans-serif;
                            font-size: 12px;
                            fill: #141000;
                            font-weight: bold;
                          }
    text.nonterminal      {font-family: Verdana, Sans-serif;
                            font-size: 12px;
                            fill: #1A1400;
                            font-weight: normal;
                          }
    text.regexp           {font-family: Verdana, Sans-serif;
                            font-size: 12px;
                            fill: #1F1800;
                            font-weight: normal;
                          }
    rect, circle, polygon {fill: #332900; stroke: #332900;}
    rect.terminal         {fill: #FFDB4D; stroke: #332900; stroke-width: 1;}
    rect.nonterminal      {fill: #FFEC9E; stroke: #332900; stroke-width: 1;}
    rect.text             {fill: none; stroke: none;}
    polygon.regexp        {fill: #FFF4C7; stroke: #332900; stroke-width: 1;}
  </style>
   </defs>
   <polygon points="9 17 1 13 1 21"/>
   <polygon points="17 17 9 13 9 21"/>
   <rect x="31" y="3" width="64" height="32" rx="10"/>
   <rect x="29"
         y="1"
         width="64"
         height="32"
         class="terminal"
         rx="10"/>
   <text class="terminal" x="39" y="21">else_if</text>
   <a xmlns:xlink="http://www.w3.org/1999/xlink"
      xlink:href="#Expression"
      xlink:title="Expression">
      <rect x="115" y="3" width="90" height="32"/>
      <rect x="113" y="1" width="90" height="32" class="nonterminal"/>
      <text class="nonterminal" x="123" y="21">Expression</text>
   </a>
   <a xmlns:xlink="http://www.w3.org/1999/xlink"
      xlink:href="#Block"
      xlink:title="Block">
      <rect x="225" y="3" width="52" height="32"/>
      <rect x="223" y="1" width="52" height="32" class="nonterminal"/>
      <text class="nonterminal" x="233" y="21">Block</text>
   </a>
   <rect x="317" y="3" width="28" height="32" rx="10"/>
   <rect x="315"
         y="1"
         width="28"
         height="32"
         class="terminal"
         rx="10"/>
   <text class="terminal" x="325" y="21">E</text>
   <rect x="317" y="47" width="24" height="32" rx="10"/>
   <rect x="315"
         y="45"
         width="24"
         height="32"
         class="terminal"
         rx="10"/>
   <text class="terminal" x="325" y="65">l</text>
   <rect x="317" y="91" width="26" height="32" rx="10"/>
   <rect x="315"
         y="89"
         width="26"
         height="32"
         class="terminal"
         rx="10"/>
   <text class="terminal" x="325" y="109">s</text>
   <rect x="317" y="135" width="28" height="32" rx="10"/>
   <rect x="315"
         y="133"
         width="28"
         height="32"
         class="terminal"
         rx="10"/>
   <text class="terminal" x="325" y="153">e</text>
   <rect x="317" y="179" width="26" height="32" rx="10"/>
   <rect x="315"
         y="177"
         width="26"
         height="32"
         class="terminal"
         rx="10"/>
   <text class="terminal" x="325" y="197">I</text>
   <rect x="317" y="223" width="24" height="32" rx="10"/>
   <rect x="315"
         y="221"
         width="24"
         height="32"
         class="terminal"
         rx="10"/>
   <text class="terminal" x="325" y="241">f</text>
   <rect x="317" y="267" width="28" height="32" rx="10"/>
   <rect x="315"
         y="265"
         width="28"
         height="32"
         class="terminal"
         rx="10"/>
   <text class="terminal" x="325" y="285">L</text>
   <rect x="317" y="311" width="24" height="32" rx="10"/>
   <rect x="315"
         y="309"
         width="24"
         height="32"
         class="terminal"
         rx="10"/>
   <text class="terminal" x="325" y="329">i</text>
   <rect x="317" y="355" width="24" height="32" rx="10"/>
   <rect x="315"
         y="353"
         width="24"
         height="32"
         class="terminal"
         rx="10"/>
   <text class="terminal" x="325" y="373">t</text>
   <path class="line"
         d="m17 17 h2 m0 0 h10 m64 0 h10 m0 0 h10 m90 0 h10 m0 0 h10 m52 0 h10 m20 0 h10 m28 0 h10 m-68 0 h20 m48 0 h20 m-88 0 q10 0 10 10 m68 0 q0 -10 10 -10 m-78 10 v24 m68 0 v-24 m-68 24 q0 10 10 10 m48 0 q10 0 10 -10 m-58 10 h10 m24 0 h10 m0 0 h4 m-58 -10 v20 m68 0 v-20 m-68 20 v24 m68 0 v-24 m-68 24 q0 10 10 10 m48 0 q10 0 10 -10 m-58 10 h10 m26 0 h10 m0 0 h2 m-58 -10 v20 m68 0 v-20 m-68 20 v24 m68 0 v-24 m-68 24 q0 10 10 10 m48 0 q10 0 10 -10 m-58 10 h10 m28 0 h10 m-58 -10 v20 m68 0 v-20 m-68 20 v24 m68 0 v-24 m-68 24 q0 10 10 10 m48 0 q10 0 10 -10 m-58 10 h10 m26 0 h10 m0 0 h2 m-58 -10 v20 m68 0 v-20 m-68 20 v24 m68 0 v-24 m-68 24 q0 10 10 10 m48 0 q10 0 10 -10 m-58 10 h10 m24 0 h10 m0 0 h4 m-58 -10 v20 m68 0 v-20 m-68 20 v24 m68 0 v-24 m-68 24 q0 10 10 10 m48 0 q10 0 10 -10 m-58 10 h10 m28 0 h10 m-58 -10 v20 m68 0 v-20 m-68 20 v24 m68 0 v-24 m-68 24 q0 10 10 10 m48 0 q10 0 10 -10 m-58 10 h10 m24 0 h10 m0 0 h4 m-58 -10 v20 m68 0 v-20 m-68 20 v24 m68 0 v-24 m-68 24 q0 10 10 10 m48 0 q10 0 10 -10 m-58 10 h10 m24 0 h10 m0 0 h4 m23 -352 h-3"/>
   <polygon points="383 17 391 13 391 21"/>
   <polygon points="383 17 375 13 375 21"/>
</svg>
