<?xml version="1.0" encoding="UTF-8"?>
<svg xmlns="http://www.w3.org/2000/svg" width="399" height="389">
   <defs>
      <style type="text/css">
    @namespace "http://www.w3.org/2000/svg";
    .line                 {fill: none; stroke: #000033; stroke-width: 1;}
    .bold-line            {stroke: #E0E0FF; shape-rendering: crispEdges; stroke-width: 2;}
    .thin-line            {stroke: #00001F; shape-rendering: crispEdges}
    .filled               {fill: #000033; stroke: none;}
    text.terminal         {font-family: Verdana, Sans-serif;
                            font-size: 12px;
                            fill: #E0E0FF;
                            font-weight: bold;
                          }
    text.nonterminal      {font-family: Verdana, Sans-serif;
                            font-size: 12px;
                            fill: #00001A;
                            font-weight: normal;
                          }
    text.regexp           {font-family: Verdana, Sans-serif;
                            font-size: 12px;
                            fill: #00001F;
                            font-weight: normal;
                          }
    rect, circle, polygon {fill: #000033; stroke: #000033;}
    rect.terminal         {fill: #4D4DFF; stroke: #000033; stroke-width: 1;}
    rect.nonterminal      {fill: #9E9EFF; stroke: #000033; stroke-width: 1;}
    rect.text             {fill: none; stroke: none;}
    polygon.regexp        {fill: #C7C7FF; stroke: #000033; stroke-width: 1;}
  </style>
   </defs>
   <polygon points="9 17 1 13 1 21"/>
   <polygon points="17 17 9 13 9 21"/>
   <rect x="51" y="3" width="36" height="32" rx="10"/>
   <rect x="49"
         y="1"
         width="36"
         height="32"
         class="terminal"
         rx="10"/>
   <text class="terminal" x="59" y="21">\\</text>
   <rect x="127" y="3" width="28" height="32" rx="10"/>
   <rect x="125"
         y="1"
         width="28"
         height="32"
         class="terminal"
         rx="10"/>
   <text class="terminal" x="135" y="21">\</text>
   <rect x="127" y="47" width="28" height="32" rx="10"/>
   <rect x="125"
         y="45"
         width="28"
         height="32"
         class="terminal"
         rx="10"/>
   <text class="terminal" x="135" y="65">/</text>
   <rect x="127" y="91" width="26" height="32" rx="10"/>
   <rect x="125"
         y="89"
         width="26"
         height="32"
         class="terminal"
         rx="10"/>
   <text class="terminal" x="135" y="109">"</text>
   <rect x="127" y="135" width="28" height="32" rx="10"/>
   <rect x="125"
         y="133"
         width="28"
         height="32"
         class="terminal"
         rx="10"/>
   <text class="terminal" x="135" y="153">b</text>
   <rect x="127" y="179" width="24" height="32" rx="10"/>
   <rect x="125"
         y="177"
         width="24"
         height="32"
         class="terminal"
         rx="10"/>
   <text class="terminal" x="135" y="197">f</text>
   <rect x="127" y="223" width="28" height="32" rx="10"/>
   <rect x="125"
         y="221"
         width="28"
         height="32"
         class="terminal"
         rx="10"/>
   <text class="terminal" x="135" y="241">n</text>
   <rect x="127" y="267" width="26" height="32" rx="10"/>
   <rect x="125"
         y="265"
         width="26"
         height="32"
         class="terminal"
         rx="10"/>
   <text class="terminal" x="135" y="285">r</text>
   <rect x="127" y="311" width="24" height="32" rx="10"/>
   <rect x="125"
         y="309"
         width="24"
         height="32"
         class="terminal"
         rx="10"/>
   <text class="terminal" x="135" y="329">t</text>
   <rect x="51" y="355" width="44" height="32" rx="10"/>
   <rect x="49"
         y="353"
         width="44"
         height="32"
         class="terminal"
         rx="10"/>
   <text class="terminal" x="59" y="373">\\u</text>
   <a xmlns:xlink="http://www.w3.org/1999/xlink"
      xlink:href="#HEX"
      xlink:title="HEX">
      <rect x="115" y="355" width="44" height="32"/>
      <rect x="113" y="353" width="44" height="32" class="nonterminal"/>
      <text class="nonterminal" x="123" y="373">HEX</text>
   </a>
   <a xmlns:xlink="http://www.w3.org/1999/xlink"
      xlink:href="#HEX"
      xlink:title="HEX">
      <rect x="179" y="355" width="44" height="32"/>
      <rect x="177" y="353" width="44" height="32" class="nonterminal"/>
      <text class="nonterminal" x="187" y="373">HEX</text>
   </a>
   <a xmlns:xlink="http://www.w3.org/1999/xlink"
      xlink:href="#HEX"
      xlink:title="HEX">
      <rect x="243" y="355" width="44" height="32"/>
      <rect x="241" y="353" width="44" height="32" class="nonterminal"/>
      <text class="nonterminal" x="251" y="373">HEX</text>
   </a>
   <a xmlns:xlink="http://www.w3.org/1999/xlink"
      xlink:href="#HEX"
      xlink:title="HEX">
      <rect x="307" y="355" width="44" height="32"/>
      <rect x="305" y="353" width="44" height="32" class="nonterminal"/>
      <text class="nonterminal" x="315" y="373">HEX</text>
   </a>
   <path class="line"
         d="m17 17 h2 m20 0 h10 m36 0 h10 m20 0 h10 m28 0 h10 m-68 0 h20 m48 0 h20 m-88 0 q10 0 10 10 m68 0 q0 -10 10 -10 m-78 10 v24 m68 0 v-24 m-68 24 q0 10 10 10 m48 0 q10 0 10 -10 m-58 10 h10 m28 0 h10 m-58 -10 v20 m68 0 v-20 m-68 20 v24 m68 0 v-24 m-68 24 q0 10 10 10 m48 0 q10 0 10 -10 m-58 10 h10 m26 0 h10 m0 0 h2 m-58 -10 v20 m68 0 v-20 m-68 20 v24 m68 0 v-24 m-68 24 q0 10 10 10 m48 0 q10 0 10 -10 m-58 10 h10 m28 0 h10 m-58 -10 v20 m68 0 v-20 m-68 20 v24 m68 0 v-24 m-68 24 q0 10 10 10 m48 0 q10 0 10 -10 m-58 10 h10 m24 0 h10 m0 0 h4 m-58 -10 v20 m68 0 v-20 m-68 20 v24 m68 0 v-24 m-68 24 q0 10 10 10 m48 0 q10 0 10 -10 m-58 10 h10 m28 0 h10 m-58 -10 v20 m68 0 v-20 m-68 20 v24 m68 0 v-24 m-68 24 q0 10 10 10 m48 0 q10 0 10 -10 m-58 10 h10 m26 0 h10 m0 0 h2 m-58 -10 v20 m68 0 v-20 m-68 20 v24 m68 0 v-24 m-68 24 q0 10 10 10 m48 0 q10 0 10 -10 m-58 10 h10 m24 0 h10 m0 0 h4 m20 -308 h176 m-340 0 h20 m320 0 h20 m-360 0 q10 0 10 10 m340 0 q0 -10 10 -10 m-350 10 v332 m340 0 v-332 m-340 332 q0 10 10 10 m320 0 q10 0 10 -10 m-330 10 h10 m44 0 h10 m0 0 h10 m44 0 h10 m0 0 h10 m44 0 h10 m0 0 h10 m44 0 h10 m0 0 h10 m44 0 h10 m23 -352 h-3"/>
   <polygon points="389 17 397 13 397 21"/>
   <polygon points="389 17 381 13 381 21"/>
</svg>
