<?xml version="1.0" encoding="UTF-8"?>
<svg xmlns="http://www.w3.org/2000/svg" width="241" height="521">
   <defs>
      <style type="text/css">
    @namespace "http://www.w3.org/2000/svg";
    .line                 {fill: none; stroke: #332900; stroke-width: 1;}
    .bold-line            {stroke: #141000; shape-rendering: crispEdges; stroke-width: 2;}
    .thin-line            {stroke: #1F1800; shape-rendering: crispEdges}
    .filled               {fill: #332900; stroke: none;}
    text.terminal         {font-family: Verdana, Sans-serif;
                            font-size: 12px;
                            fill: #141000;
                            font-weight: bold;
                          }
    text.nonterminal      {font-family: Verdana, Sans-serif;
                            font-size: 12px;
                            fill: #1A1400;
                            font-weight: normal;
                          }
    text.regexp           {font-family: Verdana, Sans-serif;
                            font-size: 12px;
                            fill: #1F1800;
                            font-weight: normal;
                          }
    rect, circle, polygon {fill: #332900; stroke: #332900;}
    rect.terminal         {fill: #FFDB4D; stroke: #332900; stroke-width: 1;}
    rect.nonterminal      {fill: #FFEC9E; stroke: #332900; stroke-width: 1;}
    rect.text             {fill: none; stroke: none;}
    polygon.regexp        {fill: #FFF4C7; stroke: #332900; stroke-width: 1;}
  </style>
   </defs>
   <polygon points="9 17 1 13 1 21"/>
   <polygon points="17 17 9 13 9 21"/>
   <a xmlns:xlink="http://www.w3.org/1999/xlink"
      xlink:href="#OrExpr"
      xlink:title="OrExpr">
      <rect x="51" y="3" width="62" height="32"/>
      <rect x="49" y="1" width="62" height="32" class="nonterminal"/>
      <text class="nonterminal" x="59" y="21">OrExpr</text>
   </a>
   <a xmlns:xlink="http://www.w3.org/1999/xlink"
      xlink:href="#AndExpr"
      xlink:title="AndExpr">
      <rect x="51" y="47" width="72" height="32"/>
      <rect x="49" y="45" width="72" height="32" class="nonterminal"/>
      <text class="nonterminal" x="59" y="65">AndExpr</text>
   </a>
   <a xmlns:xlink="http://www.w3.org/1999/xlink"
      xlink:href="#EqExpr"
      xlink:title="EqExpr">
      <rect x="51" y="91" width="64" height="32"/>
      <rect x="49" y="89" width="64" height="32" class="nonterminal"/>
      <text class="nonterminal" x="59" y="109">EqExpr</text>
   </a>
   <a xmlns:xlink="http://www.w3.org/1999/xlink"
      xlink:href="#RelExpr"
      xlink:title="RelExpr">
      <rect x="51" y="135" width="68" height="32"/>
      <rect x="49" y="133" width="68" height="32" class="nonterminal"/>
      <text class="nonterminal" x="59" y="153">RelExpr</text>
   </a>
   <a xmlns:xlink="http://www.w3.org/1999/xlink"
      xlink:href="#AddExpr"
      xlink:title="AddExpr">
      <rect x="51" y="179" width="72" height="32"/>
      <rect x="49" y="177" width="72" height="32" class="nonterminal"/>
      <text class="nonterminal" x="59" y="197">AddExpr</text>
   </a>
   <a xmlns:xlink="http://www.w3.org/1999/xlink"
      xlink:href="#MulExpr"
      xlink:title="MulExpr">
      <rect x="51" y="223" width="70" height="32"/>
      <rect x="49" y="221" width="70" height="32" class="nonterminal"/>
      <text class="nonterminal" x="59" y="241">MulExpr</text>
   </a>
   <a xmlns:xlink="http://www.w3.org/1999/xlink"
      xlink:href="#UnaryNotExpr"
      xlink:title="UnaryNotExpr">
      <rect x="51" y="267" width="106" height="32"/>
      <rect x="49" y="265" width="106" height="32" class="nonterminal"/>
      <text class="nonterminal" x="59" y="285">UnaryNotExpr</text>
   </a>
   <a xmlns:xlink="http://www.w3.org/1999/xlink"
      xlink:href="#UnaryMinusExpr"
      xlink:title="UnaryMinusExpr">
      <rect x="51" y="311" width="122" height="32"/>
      <rect x="49" y="309" width="122" height="32" class="nonterminal"/>
      <text class="nonterminal" x="59" y="329">UnaryMinusExpr</text>
   </a>
   <a xmlns:xlink="http://www.w3.org/1999/xlink"
      xlink:href="#MemberAccessExpr"
      xlink:title="MemberAccessExpr">
      <rect x="51" y="355" width="142" height="32"/>
      <rect x="49" y="353" width="142" height="32" class="nonterminal"/>
      <text class="nonterminal" x="59" y="373">MemberAccessExpr</text>
   </a>
   <a xmlns:xlink="http://www.w3.org/1999/xlink"
      xlink:href="#IndexAccessExpr"
      xlink:title="IndexAccessExpr">
      <rect x="51" y="399" width="126" height="32"/>
      <rect x="49" y="397" width="126" height="32" class="nonterminal"/>
      <text class="nonterminal" x="59" y="417">IndexAccessExpr</text>
   </a>
   <a xmlns:xlink="http://www.w3.org/1999/xlink"
      xlink:href="#CallExpr"
      xlink:title="CallExpr">
      <rect x="51" y="443" width="72" height="32"/>
      <rect x="49" y="441" width="72" height="32" class="nonterminal"/>
      <text class="nonterminal" x="59" y="461">CallExpr</text>
   </a>
   <a xmlns:xlink="http://www.w3.org/1999/xlink"
      xlink:href="#PrimaryExpr"
      xlink:title="PrimaryExpr">
      <rect x="51" y="487" width="96" height="32"/>
      <rect x="49" y="485" width="96" height="32" class="nonterminal"/>
      <text class="nonterminal" x="59" y="505">PrimaryExpr</text>
   </a>
   <path class="line"
         d="m17 17 h2 m20 0 h10 m62 0 h10 m0 0 h80 m-182 0 h20 m162 0 h20 m-202 0 q10 0 10 10 m182 0 q0 -10 10 -10 m-192 10 v24 m182 0 v-24 m-182 24 q0 10 10 10 m162 0 q10 0 10 -10 m-172 10 h10 m72 0 h10 m0 0 h70 m-172 -10 v20 m182 0 v-20 m-182 20 v24 m182 0 v-24 m-182 24 q0 10 10 10 m162 0 q10 0 10 -10 m-172 10 h10 m64 0 h10 m0 0 h78 m-172 -10 v20 m182 0 v-20 m-182 20 v24 m182 0 v-24 m-182 24 q0 10 10 10 m162 0 q10 0 10 -10 m-172 10 h10 m68 0 h10 m0 0 h74 m-172 -10 v20 m182 0 v-20 m-182 20 v24 m182 0 v-24 m-182 24 q0 10 10 10 m162 0 q10 0 10 -10 m-172 10 h10 m72 0 h10 m0 0 h70 m-172 -10 v20 m182 0 v-20 m-182 20 v24 m182 0 v-24 m-182 24 q0 10 10 10 m162 0 q10 0 10 -10 m-172 10 h10 m70 0 h10 m0 0 h72 m-172 -10 v20 m182 0 v-20 m-182 20 v24 m182 0 v-24 m-182 24 q0 10 10 10 m162 0 q10 0 10 -10 m-172 10 h10 m106 0 h10 m0 0 h36 m-172 -10 v20 m182 0 v-20 m-182 20 v24 m182 0 v-24 m-182 24 q0 10 10 10 m162 0 q10 0 10 -10 m-172 10 h10 m122 0 h10 m0 0 h20 m-172 -10 v20 m182 0 v-20 m-182 20 v24 m182 0 v-24 m-182 24 q0 10 10 10 m162 0 q10 0 10 -10 m-172 10 h10 m142 0 h10 m-172 -10 v20 m182 0 v-20 m-182 20 v24 m182 0 v-24 m-182 24 q0 10 10 10 m162 0 q10 0 10 -10 m-172 10 h10 m126 0 h10 m0 0 h16 m-172 -10 v20 m182 0 v-20 m-182 20 v24 m182 0 v-24 m-182 24 q0 10 10 10 m162 0 q10 0 10 -10 m-172 10 h10 m72 0 h10 m0 0 h70 m-172 -10 v20 m182 0 v-20 m-182 20 v24 m182 0 v-24 m-182 24 q0 10 10 10 m162 0 q10 0 10 -10 m-172 10 h10 m96 0 h10 m0 0 h46 m23 -484 h-3"/>
   <polygon points="231 17 239 13 239 21"/>
   <polygon points="231 17 223 13 223 21"/>
</svg>
