<?xml version="1.0" encoding="UTF-8"?>
<svg xmlns="http://www.w3.org/2000/svg" width="845" height="69">
   <defs>
      <style type="text/css">
    @namespace "http://www.w3.org/2000/svg";
    .line                 {fill: none; stroke: #000033; stroke-width: 1;}
    .bold-line            {stroke: #E0E0FF; shape-rendering: crispEdges; stroke-width: 2;}
    .thin-line            {stroke: #00001F; shape-rendering: crispEdges}
    .filled               {fill: #000033; stroke: none;}
    text.terminal         {font-family: Verdana, Sans-serif;
                            font-size: 12px;
                            fill: #E0E0FF;
                            font-weight: bold;
                          }
    text.nonterminal      {font-family: Verdana, Sans-serif;
                            font-size: 12px;
                            fill: #00001A;
                            font-weight: normal;
                          }
    text.regexp           {font-family: Verdana, Sans-serif;
                            font-size: 12px;
                            fill: #00001F;
                            font-weight: normal;
                          }
    rect, circle, polygon {fill: #000033; stroke: #000033;}
    rect.terminal         {fill: #4D4DFF; stroke: #000033; stroke-width: 1;}
    rect.nonterminal      {fill: #9E9EFF; stroke: #000033; stroke-width: 1;}
    rect.text             {fill: none; stroke: none;}
    polygon.regexp        {fill: #C7C7FF; stroke: #000033; stroke-width: 1;}
  </style>
   </defs>
   <polygon points="9 17 1 13 1 21"/>
   <polygon points="17 17 9 13 9 21"/>
   <rect x="31" y="3" width="38" height="32" rx="10"/>
   <rect x="29"
         y="1"
         width="38"
         height="32"
         class="terminal"
         rx="10"/>
   <text class="terminal" x="39" y="21">for</text>
   <a xmlns:xlink="http://www.w3.org/1999/xlink"
      xlink:href="#IDENTIFIER"
      xlink:title="IDENTIFIER">
      <rect x="89" y="3" width="92" height="32"/>
      <rect x="87" y="1" width="92" height="32" class="nonterminal"/>
      <text class="nonterminal" x="97" y="21">IDENTIFIER</text>
   </a>
   <rect x="201" y="3" width="52" height="32" rx="10"/>
   <rect x="199"
         y="1"
         width="52"
         height="32"
         class="terminal"
         rx="10"/>
   <text class="terminal" x="209" y="21">from</text>
   <a xmlns:xlink="http://www.w3.org/1999/xlink"
      xlink:href="#expression"
      xlink:title="expression">
      <rect x="273" y="3" width="90" height="32"/>
      <rect x="271" y="1" width="90" height="32" class="nonterminal"/>
      <text class="nonterminal" x="281" y="21">expression</text>
   </a>
   <rect x="383" y="3" width="34" height="32" rx="10"/>
   <rect x="381"
         y="1"
         width="34"
         height="32"
         class="terminal"
         rx="10"/>
   <text class="terminal" x="391" y="21">to</text>
   <a xmlns:xlink="http://www.w3.org/1999/xlink"
      xlink:href="#expression"
      xlink:title="expression">
      <rect x="437" y="3" width="90" height="32"/>
      <rect x="435" y="1" width="90" height="32" class="nonterminal"/>
      <text class="nonterminal" x="445" y="21">expression</text>
   </a>
   <rect x="567" y="35" width="48" height="32" rx="10"/>
   <rect x="565"
         y="33"
         width="48"
         height="32"
         class="terminal"
         rx="10"/>
   <text class="terminal" x="575" y="53">step</text>
   <a xmlns:xlink="http://www.w3.org/1999/xlink"
      xlink:href="#expression"
      xlink:title="expression">
      <rect x="635" y="35" width="90" height="32"/>
      <rect x="633" y="33" width="90" height="32" class="nonterminal"/>
      <text class="nonterminal" x="643" y="53">expression</text>
   </a>
   <a xmlns:xlink="http://www.w3.org/1999/xlink"
      xlink:href="#block"
      xlink:title="block">
      <rect x="765" y="3" width="52" height="32"/>
      <rect x="763" y="1" width="52" height="32" class="nonterminal"/>
      <text class="nonterminal" x="773" y="21">block</text>
   </a>
   <path class="line"
         d="m17 17 h2 m0 0 h10 m38 0 h10 m0 0 h10 m92 0 h10 m0 0 h10 m52 0 h10 m0 0 h10 m90 0 h10 m0 0 h10 m34 0 h10 m0 0 h10 m90 0 h10 m20 0 h10 m0 0 h168 m-198 0 h20 m178 0 h20 m-218 0 q10 0 10 10 m198 0 q0 -10 10 -10 m-208 10 v12 m198 0 v-12 m-198 12 q0 10 10 10 m178 0 q10 0 10 -10 m-188 10 h10 m48 0 h10 m0 0 h10 m90 0 h10 m20 -32 h10 m52 0 h10 m3 0 h-3"/>
   <polygon points="835 17 843 13 843 21"/>
   <polygon points="835 17 827 13 827 21"/>
</svg>
