<?xml version="1.0" encoding="UTF-8"?>
<svg xmlns="http://www.w3.org/2000/svg" width="657" height="553">
   <defs>
      <style type="text/css">
    @namespace "http://www.w3.org/2000/svg";
    .line                 {fill: none; stroke: #332900; stroke-width: 1;}
    .bold-line            {stroke: #141000; shape-rendering: crispEdges; stroke-width: 2;}
    .thin-line            {stroke: #1F1800; shape-rendering: crispEdges}
    .filled               {fill: #332900; stroke: none;}
    text.terminal         {font-family: Verdana, Sans-serif;
                            font-size: 12px;
                            fill: #141000;
                            font-weight: bold;
                          }
    text.nonterminal      {font-family: Verdana, Sans-serif;
                            font-size: 12px;
                            fill: #1A1400;
                            font-weight: normal;
                          }
    text.regexp           {font-family: Verdana, Sans-serif;
                            font-size: 12px;
                            fill: #1F1800;
                            font-weight: normal;
                          }
    rect, circle, polygon {fill: #332900; stroke: #332900;}
    rect.terminal         {fill: #FFDB4D; stroke: #332900; stroke-width: 1;}
    rect.nonterminal      {fill: #FFEC9E; stroke: #332900; stroke-width: 1;}
    rect.text             {fill: none; stroke: none;}
    polygon.regexp        {fill: #FFF4C7; stroke: #332900; stroke-width: 1;}
  </style>
   </defs>
   <polygon points="9 17 1 13 1 21"/>
   <polygon points="17 17 9 13 9 21"/>
   <rect x="31" y="3" width="38" height="32" rx="10"/>
   <rect x="29"
         y="1"
         width="38"
         height="32"
         class="terminal"
         rx="10"/>
   <text class="terminal" x="39" y="21">for</text>
   <a xmlns:xlink="http://www.w3.org/1999/xlink"
      xlink:href="#ID"
      xlink:title="ID">
      <rect x="89" y="3" width="34" height="32"/>
      <rect x="87" y="1" width="34" height="32" class="nonterminal"/>
      <text class="nonterminal" x="97" y="21">ID</text>
   </a>
   <rect x="143" y="3" width="52" height="32" rx="10"/>
   <rect x="141"
         y="1"
         width="52"
         height="32"
         class="terminal"
         rx="10"/>
   <text class="terminal" x="151" y="21">from</text>
   <a xmlns:xlink="http://www.w3.org/1999/xlink"
      xlink:href="#Expression"
      xlink:title="Expression">
      <rect x="215" y="3" width="90" height="32"/>
      <rect x="213" y="1" width="90" height="32" class="nonterminal"/>
      <text class="nonterminal" x="223" y="21">Expression</text>
   </a>
   <rect x="325" y="3" width="34" height="32" rx="10"/>
   <rect x="323"
         y="1"
         width="34"
         height="32"
         class="terminal"
         rx="10"/>
   <text class="terminal" x="333" y="21">to</text>
   <a xmlns:xlink="http://www.w3.org/1999/xlink"
      xlink:href="#Expression"
      xlink:title="Expression">
      <rect x="379" y="3" width="90" height="32"/>
      <rect x="377" y="1" width="90" height="32" class="nonterminal"/>
      <text class="nonterminal" x="387" y="21">Expression</text>
   </a>
   <rect x="509" y="35" width="24" height="32" rx="10"/>
   <rect x="507"
         y="33"
         width="24"
         height="32"
         class="terminal"
         rx="10"/>
   <text class="terminal" x="517" y="53">'</text>
   <rect x="509" y="79" width="26" height="32" rx="10"/>
   <rect x="507"
         y="77"
         width="26"
         height="32"
         class="terminal"
         rx="10"/>
   <text class="terminal" x="517" y="97">s</text>
   <rect x="509" y="123" width="24" height="32" rx="10"/>
   <rect x="507"
         y="121"
         width="24"
         height="32"
         class="terminal"
         rx="10"/>
   <text class="terminal" x="517" y="141">t</text>
   <rect x="509" y="167" width="28" height="32" rx="10"/>
   <rect x="507"
         y="165"
         width="28"
         height="32"
         class="terminal"
         rx="10"/>
   <text class="terminal" x="517" y="185">e</text>
   <rect x="509" y="211" width="28" height="32" rx="10"/>
   <rect x="507"
         y="209"
         width="28"
         height="32"
         class="terminal"
         rx="10"/>
   <text class="terminal" x="517" y="229">p</text>
   <rect x="509" y="255" width="24" height="32" rx="10"/>
   <rect x="507"
         y="253"
         width="24"
         height="32"
         class="terminal"
         rx="10"/>
   <text class="terminal" x="517" y="273"/>
   <rect x="509" y="299" width="28" height="32" rx="10"/>
   <rect x="507"
         y="297"
         width="28"
         height="32"
         class="terminal"
         rx="10"/>
   <text class="terminal" x="517" y="317">E</text>
   <rect x="509" y="343" width="28" height="32" rx="10"/>
   <rect x="507"
         y="341"
         width="28"
         height="32"
         class="terminal"
         rx="10"/>
   <text class="terminal" x="517" y="361">x</text>
   <rect x="509" y="387" width="26" height="32" rx="10"/>
   <rect x="507"
         y="385"
         width="26"
         height="32"
         class="terminal"
         rx="10"/>
   <text class="terminal" x="517" y="405">r</text>
   <rect x="509" y="431" width="24" height="32" rx="10"/>
   <rect x="507"
         y="429"
         width="24"
         height="32"
         class="terminal"
         rx="10"/>
   <text class="terminal" x="517" y="449">i</text>
   <rect x="509" y="475" width="28" height="32" rx="10"/>
   <rect x="507"
         y="473"
         width="28"
         height="32"
         class="terminal"
         rx="10"/>
   <text class="terminal" x="517" y="493">o</text>
   <rect x="509" y="519" width="28" height="32" rx="10"/>
   <rect x="507"
         y="517"
         width="28"
         height="32"
         class="terminal"
         rx="10"/>
   <text class="terminal" x="517" y="537">n</text>
   <a xmlns:xlink="http://www.w3.org/1999/xlink"
      xlink:href="#Block"
      xlink:title="Block">
      <rect x="577" y="3" width="52" height="32"/>
      <rect x="575" y="1" width="52" height="32" class="nonterminal"/>
      <text class="nonterminal" x="585" y="21">Block</text>
   </a>
   <path class="line"
         d="m17 17 h2 m0 0 h10 m38 0 h10 m0 0 h10 m34 0 h10 m0 0 h10 m52 0 h10 m0 0 h10 m90 0 h10 m0 0 h10 m34 0 h10 m0 0 h10 m90 0 h10 m20 0 h10 m0 0 h38 m-68 0 h20 m48 0 h20 m-88 0 q10 0 10 10 m68 0 q0 -10 10 -10 m-78 10 v12 m68 0 v-12 m-68 12 q0 10 10 10 m48 0 q10 0 10 -10 m-58 10 h10 m24 0 h10 m0 0 h4 m-58 -10 v20 m68 0 v-20 m-68 20 v24 m68 0 v-24 m-68 24 q0 10 10 10 m48 0 q10 0 10 -10 m-58 10 h10 m26 0 h10 m0 0 h2 m-58 -10 v20 m68 0 v-20 m-68 20 v24 m68 0 v-24 m-68 24 q0 10 10 10 m48 0 q10 0 10 -10 m-58 10 h10 m24 0 h10 m0 0 h4 m-58 -10 v20 m68 0 v-20 m-68 20 v24 m68 0 v-24 m-68 24 q0 10 10 10 m48 0 q10 0 10 -10 m-58 10 h10 m28 0 h10 m-58 -10 v20 m68 0 v-20 m-68 20 v24 m68 0 v-24 m-68 24 q0 10 10 10 m48 0 q10 0 10 -10 m-58 10 h10 m28 0 h10 m-58 -10 v20 m68 0 v-20 m-68 20 v24 m68 0 v-24 m-68 24 q0 10 10 10 m48 0 q10 0 10 -10 m-58 10 h10 m24 0 h10 m0 0 h4 m-58 -10 v20 m68 0 v-20 m-68 20 v24 m68 0 v-24 m-68 24 q0 10 10 10 m48 0 q10 0 10 -10 m-58 10 h10 m28 0 h10 m-58 -10 v20 m68 0 v-20 m-68 20 v24 m68 0 v-24 m-68 24 q0 10 10 10 m48 0 q10 0 10 -10 m-58 10 h10 m28 0 h10 m-58 -10 v20 m68 0 v-20 m-68 20 v24 m68 0 v-24 m-68 24 q0 10 10 10 m48 0 q10 0 10 -10 m-58 10 h10 m26 0 h10 m0 0 h2 m-58 -10 v20 m68 0 v-20 m-68 20 v24 m68 0 v-24 m-68 24 q0 10 10 10 m48 0 q10 0 10 -10 m-58 10 h10 m24 0 h10 m0 0 h4 m-58 -10 v20 m68 0 v-20 m-68 20 v24 m68 0 v-24 m-68 24 q0 10 10 10 m48 0 q10 0 10 -10 m-58 10 h10 m28 0 h10 m-58 -10 v20 m68 0 v-20 m-68 20 v24 m68 0 v-24 m-68 24 q0 10 10 10 m48 0 q10 0 10 -10 m-58 10 h10 m28 0 h10 m20 -516 h10 m52 0 h10 m3 0 h-3"/>
   <polygon points="647 17 655 13 655 21"/>
   <polygon points="647 17 639 13 639 21"/>
</svg>
