<?xml version="1.0" encoding="UTF-8"?>
<svg xmlns="http://www.w3.org/2000/svg" width="533" height="465">
   <defs>
      <style type="text/css">
    @namespace "http://www.w3.org/2000/svg";
    .line                 {fill: none; stroke: #332900; stroke-width: 1;}
    .bold-line            {stroke: #141000; shape-rendering: crispEdges; stroke-width: 2;}
    .thin-line            {stroke: #1F1800; shape-rendering: crispEdges}
    .filled               {fill: #332900; stroke: none;}
    text.terminal         {font-family: Verdana, Sans-serif;
                            font-size: 12px;
                            fill: #141000;
                            font-weight: bold;
                          }
    text.nonterminal      {font-family: Verdana, Sans-serif;
                            font-size: 12px;
                            fill: #1A1400;
                            font-weight: normal;
                          }
    text.regexp           {font-family: Verdana, Sans-serif;
                            font-size: 12px;
                            fill: #1F1800;
                            font-weight: normal;
                          }
    rect, circle, polygon {fill: #332900; stroke: #332900;}
    rect.terminal         {fill: #FFDB4D; stroke: #332900; stroke-width: 1;}
    rect.nonterminal      {fill: #FFEC9E; stroke: #332900; stroke-width: 1;}
    rect.text             {fill: none; stroke: none;}
    polygon.regexp        {fill: #FFF4C7; stroke: #332900; stroke-width: 1;}
  </style>
   </defs>
   <polygon points="9 17 1 13 1 21"/>
   <polygon points="17 17 9 13 9 21"/>
   <rect x="31" y="3" width="74" height="32" rx="10"/>
   <rect x="29"
         y="1"
         width="74"
         height="32"
         class="terminal"
         rx="10"/>
   <text class="terminal" x="39" y="21">function</text>
   <a xmlns:xlink="http://www.w3.org/1999/xlink"
      xlink:href="#ID"
      xlink:title="ID">
      <rect x="125" y="3" width="34" height="32"/>
      <rect x="123" y="1" width="34" height="32" class="nonterminal"/>
      <text class="nonterminal" x="133" y="21">ID</text>
   </a>
   <rect x="179" y="3" width="26" height="32" rx="10"/>
   <rect x="177"
         y="1"
         width="26"
         height="32"
         class="terminal"
         rx="10"/>
   <text class="terminal" x="187" y="21">(</text>
   <rect x="245" y="35" width="28" height="32" rx="10"/>
   <rect x="243"
         y="33"
         width="28"
         height="32"
         class="terminal"
         rx="10"/>
   <text class="terminal" x="253" y="53">P</text>
   <rect x="245" y="79" width="28" height="32" rx="10"/>
   <rect x="243"
         y="77"
         width="28"
         height="32"
         class="terminal"
         rx="10"/>
   <text class="terminal" x="253" y="97">a</text>
   <rect x="245" y="123" width="26" height="32" rx="10"/>
   <rect x="243"
         y="121"
         width="26"
         height="32"
         class="terminal"
         rx="10"/>
   <text class="terminal" x="253" y="141">r</text>
   <rect x="245" y="167" width="32" height="32" rx="10"/>
   <rect x="243"
         y="165"
         width="32"
         height="32"
         class="terminal"
         rx="10"/>
   <text class="terminal" x="253" y="185">m</text>
   <rect x="245" y="211" width="28" height="32" rx="10"/>
   <rect x="243"
         y="209"
         width="28"
         height="32"
         class="terminal"
         rx="10"/>
   <text class="terminal" x="253" y="229">L</text>
   <rect x="245" y="255" width="24" height="32" rx="10"/>
   <rect x="243"
         y="253"
         width="24"
         height="32"
         class="terminal"
         rx="10"/>
   <text class="terminal" x="253" y="273">i</text>
   <rect x="245" y="299" width="26" height="32" rx="10"/>
   <rect x="243"
         y="297"
         width="26"
         height="32"
         class="terminal"
         rx="10"/>
   <text class="terminal" x="253" y="317">s</text>
   <rect x="245" y="343" width="24" height="32" rx="10"/>
   <rect x="243"
         y="341"
         width="24"
         height="32"
         class="terminal"
         rx="10"/>
   <text class="terminal" x="253" y="361">t</text>
   <rect x="245" y="387" width="30" height="32" rx="10"/>
   <rect x="243"
         y="385"
         width="30"
         height="32"
         class="terminal"
         rx="10"/>
   <text class="terminal" x="253" y="405">O</text>
   <rect x="245" y="431" width="28" height="32" rx="10"/>
   <rect x="243"
         y="429"
         width="28"
         height="32"
         class="terminal"
         rx="10"/>
   <text class="terminal" x="253" y="449">p</text>
   <rect x="317" y="3" width="26" height="32" rx="10"/>
   <rect x="315"
         y="1"
         width="26"
         height="32"
         class="terminal"
         rx="10"/>
   <text class="terminal" x="325" y="21">)</text>
   <rect x="383" y="35" width="28" height="32" rx="10"/>
   <rect x="381"
         y="33"
         width="28"
         height="32"
         class="terminal"
         rx="10"/>
   <text class="terminal" x="391" y="53">R</text>
   <rect x="383" y="79" width="28" height="32" rx="10"/>
   <rect x="381"
         y="77"
         width="28"
         height="32"
         class="terminal"
         rx="10"/>
   <text class="terminal" x="391" y="97">e</text>
   <rect x="383" y="123" width="24" height="32" rx="10"/>
   <rect x="381"
         y="121"
         width="24"
         height="32"
         class="terminal"
         rx="10"/>
   <text class="terminal" x="391" y="141">t</text>
   <rect x="383" y="167" width="28" height="32" rx="10"/>
   <rect x="381"
         y="165"
         width="28"
         height="32"
         class="terminal"
         rx="10"/>
   <text class="terminal" x="391" y="185">u</text>
   <rect x="383" y="211" width="26" height="32" rx="10"/>
   <rect x="381"
         y="209"
         width="26"
         height="32"
         class="terminal"
         rx="10"/>
   <text class="terminal" x="391" y="229">r</text>
   <rect x="383" y="255" width="28" height="32" rx="10"/>
   <rect x="381"
         y="253"
         width="28"
         height="32"
         class="terminal"
         rx="10"/>
   <text class="terminal" x="391" y="273">n</text>
   <rect x="383" y="299" width="28" height="32" rx="10"/>
   <rect x="381"
         y="297"
         width="28"
         height="32"
         class="terminal"
         rx="10"/>
   <text class="terminal" x="391" y="317">T</text>
   <rect x="383" y="343" width="28" height="32" rx="10"/>
   <rect x="381"
         y="341"
         width="28"
         height="32"
         class="terminal"
         rx="10"/>
   <text class="terminal" x="391" y="361">y</text>
   <rect x="383" y="387" width="28" height="32" rx="10"/>
   <rect x="381"
         y="385"
         width="28"
         height="32"
         class="terminal"
         rx="10"/>
   <text class="terminal" x="391" y="405">p</text>
   <rect x="383" y="431" width="30" height="32" rx="10"/>
   <rect x="381"
         y="429"
         width="30"
         height="32"
         class="terminal"
         rx="10"/>
   <text class="terminal" x="391" y="449">O</text>
   <a xmlns:xlink="http://www.w3.org/1999/xlink"
      xlink:href="#Block"
      xlink:title="Block">
      <rect x="453" y="3" width="52" height="32"/>
      <rect x="451" y="1" width="52" height="32" class="nonterminal"/>
      <text class="nonterminal" x="461" y="21">Block</text>
   </a>
   <path class="line"
         d="m17 17 h2 m0 0 h10 m74 0 h10 m0 0 h10 m34 0 h10 m0 0 h10 m26 0 h10 m20 0 h10 m0 0 h42 m-72 0 h20 m52 0 h20 m-92 0 q10 0 10 10 m72 0 q0 -10 10 -10 m-82 10 v12 m72 0 v-12 m-72 12 q0 10 10 10 m52 0 q10 0 10 -10 m-62 10 h10 m28 0 h10 m0 0 h4 m-62 -10 v20 m72 0 v-20 m-72 20 v24 m72 0 v-24 m-72 24 q0 10 10 10 m52 0 q10 0 10 -10 m-62 10 h10 m28 0 h10 m0 0 h4 m-62 -10 v20 m72 0 v-20 m-72 20 v24 m72 0 v-24 m-72 24 q0 10 10 10 m52 0 q10 0 10 -10 m-62 10 h10 m26 0 h10 m0 0 h6 m-62 -10 v20 m72 0 v-20 m-72 20 v24 m72 0 v-24 m-72 24 q0 10 10 10 m52 0 q10 0 10 -10 m-62 10 h10 m32 0 h10 m-62 -10 v20 m72 0 v-20 m-72 20 v24 m72 0 v-24 m-72 24 q0 10 10 10 m52 0 q10 0 10 -10 m-62 10 h10 m28 0 h10 m0 0 h4 m-62 -10 v20 m72 0 v-20 m-72 20 v24 m72 0 v-24 m-72 24 q0 10 10 10 m52 0 q10 0 10 -10 m-62 10 h10 m24 0 h10 m0 0 h8 m-62 -10 v20 m72 0 v-20 m-72 20 v24 m72 0 v-24 m-72 24 q0 10 10 10 m52 0 q10 0 10 -10 m-62 10 h10 m26 0 h10 m0 0 h6 m-62 -10 v20 m72 0 v-20 m-72 20 v24 m72 0 v-24 m-72 24 q0 10 10 10 m52 0 q10 0 10 -10 m-62 10 h10 m24 0 h10 m0 0 h8 m-62 -10 v20 m72 0 v-20 m-72 20 v24 m72 0 v-24 m-72 24 q0 10 10 10 m52 0 q10 0 10 -10 m-62 10 h10 m30 0 h10 m0 0 h2 m-62 -10 v20 m72 0 v-20 m-72 20 v24 m72 0 v-24 m-72 24 q0 10 10 10 m52 0 q10 0 10 -10 m-62 10 h10 m28 0 h10 m0 0 h4 m20 -428 h10 m26 0 h10 m20 0 h10 m0 0 h40 m-70 0 h20 m50 0 h20 m-90 0 q10 0 10 10 m70 0 q0 -10 10 -10 m-80 10 v12 m70 0 v-12 m-70 12 q0 10 10 10 m50 0 q10 0 10 -10 m-60 10 h10 m28 0 h10 m0 0 h2 m-60 -10 v20 m70 0 v-20 m-70 20 v24 m70 0 v-24 m-70 24 q0 10 10 10 m50 0 q10 0 10 -10 m-60 10 h10 m28 0 h10 m0 0 h2 m-60 -10 v20 m70 0 v-20 m-70 20 v24 m70 0 v-24 m-70 24 q0 10 10 10 m50 0 q10 0 10 -10 m-60 10 h10 m24 0 h10 m0 0 h6 m-60 -10 v20 m70 0 v-20 m-70 20 v24 m70 0 v-24 m-70 24 q0 10 10 10 m50 0 q10 0 10 -10 m-60 10 h10 m28 0 h10 m0 0 h2 m-60 -10 v20 m70 0 v-20 m-70 20 v24 m70 0 v-24 m-70 24 q0 10 10 10 m50 0 q10 0 10 -10 m-60 10 h10 m26 0 h10 m0 0 h4 m-60 -10 v20 m70 0 v-20 m-70 20 v24 m70 0 v-24 m-70 24 q0 10 10 10 m50 0 q10 0 10 -10 m-60 10 h10 m28 0 h10 m0 0 h2 m-60 -10 v20 m70 0 v-20 m-70 20 v24 m70 0 v-24 m-70 24 q0 10 10 10 m50 0 q10 0 10 -10 m-60 10 h10 m28 0 h10 m0 0 h2 m-60 -10 v20 m70 0 v-20 m-70 20 v24 m70 0 v-24 m-70 24 q0 10 10 10 m50 0 q10 0 10 -10 m-60 10 h10 m28 0 h10 m0 0 h2 m-60 -10 v20 m70 0 v-20 m-70 20 v24 m70 0 v-24 m-70 24 q0 10 10 10 m50 0 q10 0 10 -10 m-60 10 h10 m28 0 h10 m0 0 h2 m-60 -10 v20 m70 0 v-20 m-70 20 v24 m70 0 v-24 m-70 24 q0 10 10 10 m50 0 q10 0 10 -10 m-60 10 h10 m30 0 h10 m20 -428 h10 m52 0 h10 m3 0 h-3"/>
   <polygon points="523 17 531 13 531 21"/>
   <polygon points="523 17 515 13 515 21"/>
</svg>
