<?xml version="1.0" encoding="UTF-8"?>
<svg xmlns="http://www.w3.org/2000/svg" width="785" height="69">
   <defs>
      <style type="text/css">
    @namespace "http://www.w3.org/2000/svg";
    .line                 {fill: none; stroke: #000033; stroke-width: 1;}
    .bold-line            {stroke: #E0E0FF; shape-rendering: crispEdges; stroke-width: 2;}
    .thin-line            {stroke: #00001F; shape-rendering: crispEdges}
    .filled               {fill: #000033; stroke: none;}
    text.terminal         {font-family: Verdana, Sans-serif;
                            font-size: 12px;
                            fill: #E0E0FF;
                            font-weight: bold;
                          }
    text.nonterminal      {font-family: Verdana, Sans-serif;
                            font-size: 12px;
                            fill: #00001A;
                            font-weight: normal;
                          }
    text.regexp           {font-family: Verdana, Sans-serif;
                            font-size: 12px;
                            fill: #00001F;
                            font-weight: normal;
                          }
    rect, circle, polygon {fill: #000033; stroke: #000033;}
    rect.terminal         {fill: #4D4DFF; stroke: #000033; stroke-width: 1;}
    rect.nonterminal      {fill: #9E9EFF; stroke: #000033; stroke-width: 1;}
    rect.text             {fill: none; stroke: none;}
    polygon.regexp        {fill: #C7C7FF; stroke: #000033; stroke-width: 1;}
  </style>
   </defs>
   <polygon points="9 17 1 13 1 21"/>
   <polygon points="17 17 9 13 9 21"/>
   <rect x="31" y="3" width="74" height="32" rx="10"/>
   <rect x="29"
         y="1"
         width="74"
         height="32"
         class="terminal"
         rx="10"/>
   <text class="terminal" x="39" y="21">function</text>
   <a xmlns:xlink="http://www.w3.org/1999/xlink"
      xlink:href="#functionName"
      xlink:title="functionName">
      <rect x="125" y="3" width="106" height="32"/>
      <rect x="123" y="1" width="106" height="32" class="nonterminal"/>
      <text class="nonterminal" x="133" y="21">functionName</text>
   </a>
   <rect x="251" y="3" width="26" height="32" rx="10"/>
   <rect x="249"
         y="1"
         width="26"
         height="32"
         class="terminal"
         rx="10"/>
   <text class="terminal" x="259" y="21">(</text>
   <a xmlns:xlink="http://www.w3.org/1999/xlink"
      xlink:href="#parameterList"
      xlink:title="parameterList">
      <rect x="317" y="35" width="108" height="32"/>
      <rect x="315" y="33" width="108" height="32" class="nonterminal"/>
      <text class="nonterminal" x="325" y="53">parameterList</text>
   </a>
   <rect x="465" y="3" width="26" height="32" rx="10"/>
   <rect x="463"
         y="1"
         width="26"
         height="32"
         class="terminal"
         rx="10"/>
   <text class="terminal" x="473" y="21">)</text>
   <rect x="531" y="35" width="36" height="32" rx="10"/>
   <rect x="529"
         y="33"
         width="36"
         height="32"
         class="terminal"
         rx="10"/>
   <text class="terminal" x="539" y="53">-&gt;</text>
   <a xmlns:xlink="http://www.w3.org/1999/xlink"
      xlink:href="#dataType"
      xlink:title="dataType">
      <rect x="587" y="35" width="78" height="32"/>
      <rect x="585" y="33" width="78" height="32" class="nonterminal"/>
      <text class="nonterminal" x="595" y="53">dataType</text>
   </a>
   <a xmlns:xlink="http://www.w3.org/1999/xlink"
      xlink:href="#block"
      xlink:title="block">
      <rect x="705" y="3" width="52" height="32"/>
      <rect x="703" y="1" width="52" height="32" class="nonterminal"/>
      <text class="nonterminal" x="713" y="21">block</text>
   </a>
   <path class="line"
         d="m17 17 h2 m0 0 h10 m74 0 h10 m0 0 h10 m106 0 h10 m0 0 h10 m26 0 h10 m20 0 h10 m0 0 h118 m-148 0 h20 m128 0 h20 m-168 0 q10 0 10 10 m148 0 q0 -10 10 -10 m-158 10 v12 m148 0 v-12 m-148 12 q0 10 10 10 m128 0 q10 0 10 -10 m-138 10 h10 m108 0 h10 m20 -32 h10 m26 0 h10 m20 0 h10 m0 0 h144 m-174 0 h20 m154 0 h20 m-194 0 q10 0 10 10 m174 0 q0 -10 10 -10 m-184 10 v12 m174 0 v-12 m-174 12 q0 10 10 10 m154 0 q10 0 10 -10 m-164 10 h10 m36 0 h10 m0 0 h10 m78 0 h10 m20 -32 h10 m52 0 h10 m3 0 h-3"/>
   <polygon points="775 17 783 13 783 21"/>
   <polygon points="775 17 767 13 767 21"/>
</svg>
