<?xml version="1.0" encoding="UTF-8"?>
<svg xmlns="http://www.w3.org/2000/svg" width="305" height="71">
   <defs>
      <style type="text/css">
    @namespace "http://www.w3.org/2000/svg";
    .line                 {fill: none; stroke: #000033; stroke-width: 1;}
    .bold-line            {stroke: #E0E0FF; shape-rendering: crispEdges; stroke-width: 2;}
    .thin-line            {stroke: #00001F; shape-rendering: crispEdges}
    .filled               {fill: #000033; stroke: none;}
    text.terminal         {font-family: Verdana, Sans-serif;
                            font-size: 12px;
                            fill: #E0E0FF;
                            font-weight: bold;
                          }
    text.nonterminal      {font-family: Verdana, Sans-serif;
                            font-size: 12px;
                            fill: #00001A;
                            font-weight: normal;
                          }
    text.regexp           {font-family: Verdana, Sans-serif;
                            font-size: 12px;
                            fill: #00001F;
                            font-weight: normal;
                          }
    rect, circle, polygon {fill: #000033; stroke: #000033;}
    rect.terminal         {fill: #4D4DFF; stroke: #000033; stroke-width: 1;}
    rect.nonterminal      {fill: #9E9EFF; stroke: #000033; stroke-width: 1;}
    rect.text             {fill: none; stroke: none;}
    polygon.regexp        {fill: #C7C7FF; stroke: #000033; stroke-width: 1;}
  </style>
   </defs>
   <polygon points="9 51 1 47 1 55"/>
   <polygon points="17 51 9 47 9 55"/>
   <a xmlns:xlink="http://www.w3.org/1999/xlink"
      xlink:href="#functionDeclaration"
      xlink:title="functionDeclaration">
      <rect x="51" y="3" width="142" height="32"/>
      <rect x="49" y="1" width="142" height="32" class="nonterminal"/>
      <text class="nonterminal" x="59" y="21">functionDeclaration</text>
   </a>
   <a xmlns:xlink="http://www.w3.org/1999/xlink"
      xlink:href="#EOF"
      xlink:title="EOF">
      <rect x="233" y="37" width="44" height="32"/>
      <rect x="231" y="35" width="44" height="32" class="nonterminal"/>
      <text class="nonterminal" x="241" y="55">EOF</text>
   </a>
   <path class="line"
         d="m17 51 h2 m20 0 h10 m0 0 h152 m-182 0 l20 0 m-1 0 q-9 0 -9 -10 l0 -14 q0 -10 10 -10 m162 34 l20 0 m-20 0 q10 0 10 -10 l0 -14 q0 -10 -10 -10 m-162 0 h10 m142 0 h10 m20 34 h10 m44 0 h10 m3 0 h-3"/>
   <polygon points="295 51 303 47 303 55"/>
   <polygon points="295 51 287 47 287 55"/>
</svg>
