<?xml version="1.0" encoding="UTF-8"?>
<svg xmlns="http://www.w3.org/2000/svg" width="657" height="37">
   <defs>
      <style type="text/css">
    @namespace "http://www.w3.org/2000/svg";
    .line                 {fill: none; stroke: #332900; stroke-width: 1;}
    .bold-line            {stroke: #141000; shape-rendering: crispEdges; stroke-width: 2;}
    .thin-line            {stroke: #1F1800; shape-rendering: crispEdges}
    .filled               {fill: #332900; stroke: none;}
    text.terminal         {font-family: Verdana, Sans-serif;
                            font-size: 12px;
                            fill: #141000;
                            font-weight: bold;
                          }
    text.nonterminal      {font-family: Verdana, Sans-serif;
                            font-size: 12px;
                            fill: #1A1400;
                            font-weight: normal;
                          }
    text.regexp           {font-family: Verdana, Sans-serif;
                            font-size: 12px;
                            fill: #1F1800;
                            font-weight: normal;
                          }
    rect, circle, polygon {fill: #332900; stroke: #332900;}
    rect.terminal         {fill: #FFDB4D; stroke: #332900; stroke-width: 1;}
    rect.nonterminal      {fill: #FFEC9E; stroke: #332900; stroke-width: 1;}
    rect.text             {fill: none; stroke: none;}
    polygon.regexp        {fill: #FFF4C7; stroke: #332900; stroke-width: 1;}
  </style>
   </defs>
   <polygon points="9 17 1 13 1 21"/>
   <polygon points="17 17 9 13 9 21"/>
   <rect x="31" y="3" width="78" height="32" rx="10"/>
   <rect x="29"
         y="1"
         width="78"
         height="32"
         class="terminal"
         rx="10"/>
   <text class="terminal" x="39" y="21">gateway</text>
   <a xmlns:xlink="http://www.w3.org/1999/xlink"
      xlink:href="#ID"
      xlink:title="ID">
      <rect x="129" y="3" width="34" height="32"/>
      <rect x="127" y="1" width="34" height="32" class="nonterminal"/>
      <text class="nonterminal" x="137" y="21">ID</text>
   </a>
   <rect x="183" y="3" width="70" height="32" rx="10"/>
   <rect x="181"
         y="1"
         width="70"
         height="32"
         class="terminal"
         rx="10"/>
   <text class="terminal" x="191" y="21">parallel</text>
   <rect x="273" y="3" width="28" height="32" rx="10"/>
   <rect x="271"
         y="1"
         width="28"
         height="32"
         class="terminal"
         rx="10"/>
   <text class="terminal" x="281" y="21">{</text>
   <a xmlns:xlink="http://www.w3.org/1999/xlink"
      xlink:href="#GatewayBranchList"
      xlink:title="GatewayBranchList">
      <rect x="321" y="3" width="140" height="32"/>
      <rect x="319" y="1" width="140" height="32" class="nonterminal"/>
      <text class="nonterminal" x="329" y="21">GatewayBranchList</text>
   </a>
   <a xmlns:xlink="http://www.w3.org/1999/xlink"
      xlink:href="#GatewayJoin"
      xlink:title="GatewayJoin">
      <rect x="481" y="3" width="100" height="32"/>
      <rect x="479" y="1" width="100" height="32" class="nonterminal"/>
      <text class="nonterminal" x="489" y="21">GatewayJoin</text>
   </a>
   <rect x="601" y="3" width="28" height="32" rx="10"/>
   <rect x="599"
         y="1"
         width="28"
         height="32"
         class="terminal"
         rx="10"/>
   <text class="terminal" x="609" y="21">}</text>
   <path class="line"
         d="m17 17 h2 m0 0 h10 m78 0 h10 m0 0 h10 m34 0 h10 m0 0 h10 m70 0 h10 m0 0 h10 m28 0 h10 m0 0 h10 m140 0 h10 m0 0 h10 m100 0 h10 m0 0 h10 m28 0 h10 m3 0 h-3"/>
   <polygon points="647 17 655 13 655 21"/>
   <polygon points="647 17 639 13 639 21"/>
</svg>
