<?xml version="1.0" encoding="UTF-8"?>
<svg xmlns="http://www.w3.org/2000/svg" width="269" height="609">
   <defs>
      <style type="text/css">
    @namespace "http://www.w3.org/2000/svg";
    .line                 {fill: none; stroke: #332900; stroke-width: 1;}
    .bold-line            {stroke: #141000; shape-rendering: crispEdges; stroke-width: 2;}
    .thin-line            {stroke: #1F1800; shape-rendering: crispEdges}
    .filled               {fill: #332900; stroke: none;}
    text.terminal         {font-family: Verdana, Sans-serif;
                            font-size: 12px;
                            fill: #141000;
                            font-weight: bold;
                          }
    text.nonterminal      {font-family: Verdana, Sans-serif;
                            font-size: 12px;
                            fill: #1A1400;
                            font-weight: normal;
                          }
    text.regexp           {font-family: Verdana, Sans-serif;
                            font-size: 12px;
                            fill: #1F1800;
                            font-weight: normal;
                          }
    rect, circle, polygon {fill: #332900; stroke: #332900;}
    rect.terminal         {fill: #FFDB4D; stroke: #332900; stroke-width: 1;}
    rect.nonterminal      {fill: #FFEC9E; stroke: #332900; stroke-width: 1;}
    rect.text             {fill: none; stroke: none;}
    polygon.regexp        {fill: #FFF4C7; stroke: #332900; stroke-width: 1;}
  </style>
   </defs>
   <polygon points="9 17 1 13 1 21"/>
   <polygon points="17 17 9 13 9 21"/>
   <a xmlns:xlink="http://www.w3.org/1999/xlink"
      xlink:href="#GatewayBranch"
      xlink:title="GatewayBranch">
      <rect x="31" y="3" width="118" height="32"/>
      <rect x="29" y="1" width="118" height="32" class="nonterminal"/>
      <text class="nonterminal" x="39" y="21">GatewayBranch</text>
   </a>
   <rect x="189" y="3" width="30" height="32" rx="10"/>
   <rect x="187"
         y="1"
         width="30"
         height="32"
         class="terminal"
         rx="10"/>
   <text class="terminal" x="197" y="21">G</text>
   <rect x="189" y="47" width="28" height="32" rx="10"/>
   <rect x="187"
         y="45"
         width="28"
         height="32"
         class="terminal"
         rx="10"/>
   <text class="terminal" x="197" y="65">a</text>
   <rect x="189" y="91" width="24" height="32" rx="10"/>
   <rect x="187"
         y="89"
         width="24"
         height="32"
         class="terminal"
         rx="10"/>
   <text class="terminal" x="197" y="109">t</text>
   <rect x="189" y="135" width="28" height="32" rx="10"/>
   <rect x="187"
         y="133"
         width="28"
         height="32"
         class="terminal"
         rx="10"/>
   <text class="terminal" x="197" y="153">e</text>
   <rect x="189" y="179" width="32" height="32" rx="10"/>
   <rect x="187"
         y="177"
         width="32"
         height="32"
         class="terminal"
         rx="10"/>
   <text class="terminal" x="197" y="197">w</text>
   <rect x="189" y="223" width="28" height="32" rx="10"/>
   <rect x="187"
         y="221"
         width="28"
         height="32"
         class="terminal"
         rx="10"/>
   <text class="terminal" x="197" y="241">y</text>
   <rect x="189" y="267" width="28" height="32" rx="10"/>
   <rect x="187"
         y="265"
         width="28"
         height="32"
         class="terminal"
         rx="10"/>
   <text class="terminal" x="197" y="285">B</text>
   <rect x="189" y="311" width="26" height="32" rx="10"/>
   <rect x="187"
         y="309"
         width="26"
         height="32"
         class="terminal"
         rx="10"/>
   <text class="terminal" x="197" y="329">r</text>
   <rect x="189" y="355" width="28" height="32" rx="10"/>
   <rect x="187"
         y="353"
         width="28"
         height="32"
         class="terminal"
         rx="10"/>
   <text class="terminal" x="197" y="373">n</text>
   <rect x="189" y="399" width="26" height="32" rx="10"/>
   <rect x="187"
         y="397"
         width="26"
         height="32"
         class="terminal"
         rx="10"/>
   <text class="terminal" x="197" y="417">c</text>
   <rect x="189" y="443" width="28" height="32" rx="10"/>
   <rect x="187"
         y="441"
         width="28"
         height="32"
         class="terminal"
         rx="10"/>
   <text class="terminal" x="197" y="461">h</text>
   <rect x="189" y="487" width="28" height="32" rx="10"/>
   <rect x="187"
         y="485"
         width="28"
         height="32"
         class="terminal"
         rx="10"/>
   <text class="terminal" x="197" y="505">L</text>
   <rect x="189" y="531" width="24" height="32" rx="10"/>
   <rect x="187"
         y="529"
         width="24"
         height="32"
         class="terminal"
         rx="10"/>
   <text class="terminal" x="197" y="549">i</text>
   <rect x="189" y="575" width="26" height="32" rx="10"/>
   <rect x="187"
         y="573"
         width="26"
         height="32"
         class="terminal"
         rx="10"/>
   <text class="terminal" x="197" y="593">s</text>
   <path class="line"
         d="m17 17 h2 m0 0 h10 m118 0 h10 m20 0 h10 m30 0 h10 m0 0 h2 m-72 0 h20 m52 0 h20 m-92 0 q10 0 10 10 m72 0 q0 -10 10 -10 m-82 10 v24 m72 0 v-24 m-72 24 q0 10 10 10 m52 0 q10 0 10 -10 m-62 10 h10 m28 0 h10 m0 0 h4 m-62 -10 v20 m72 0 v-20 m-72 20 v24 m72 0 v-24 m-72 24 q0 10 10 10 m52 0 q10 0 10 -10 m-62 10 h10 m24 0 h10 m0 0 h8 m-62 -10 v20 m72 0 v-20 m-72 20 v24 m72 0 v-24 m-72 24 q0 10 10 10 m52 0 q10 0 10 -10 m-62 10 h10 m28 0 h10 m0 0 h4 m-62 -10 v20 m72 0 v-20 m-72 20 v24 m72 0 v-24 m-72 24 q0 10 10 10 m52 0 q10 0 10 -10 m-62 10 h10 m32 0 h10 m-62 -10 v20 m72 0 v-20 m-72 20 v24 m72 0 v-24 m-72 24 q0 10 10 10 m52 0 q10 0 10 -10 m-62 10 h10 m28 0 h10 m0 0 h4 m-62 -10 v20 m72 0 v-20 m-72 20 v24 m72 0 v-24 m-72 24 q0 10 10 10 m52 0 q10 0 10 -10 m-62 10 h10 m28 0 h10 m0 0 h4 m-62 -10 v20 m72 0 v-20 m-72 20 v24 m72 0 v-24 m-72 24 q0 10 10 10 m52 0 q10 0 10 -10 m-62 10 h10 m26 0 h10 m0 0 h6 m-62 -10 v20 m72 0 v-20 m-72 20 v24 m72 0 v-24 m-72 24 q0 10 10 10 m52 0 q10 0 10 -10 m-62 10 h10 m28 0 h10 m0 0 h4 m-62 -10 v20 m72 0 v-20 m-72 20 v24 m72 0 v-24 m-72 24 q0 10 10 10 m52 0 q10 0 10 -10 m-62 10 h10 m26 0 h10 m0 0 h6 m-62 -10 v20 m72 0 v-20 m-72 20 v24 m72 0 v-24 m-72 24 q0 10 10 10 m52 0 q10 0 10 -10 m-62 10 h10 m28 0 h10 m0 0 h4 m-62 -10 v20 m72 0 v-20 m-72 20 v24 m72 0 v-24 m-72 24 q0 10 10 10 m52 0 q10 0 10 -10 m-62 10 h10 m28 0 h10 m0 0 h4 m-62 -10 v20 m72 0 v-20 m-72 20 v24 m72 0 v-24 m-72 24 q0 10 10 10 m52 0 q10 0 10 -10 m-62 10 h10 m24 0 h10 m0 0 h8 m-62 -10 v20 m72 0 v-20 m-72 20 v24 m72 0 v-24 m-72 24 q0 10 10 10 m52 0 q10 0 10 -10 m-62 10 h10 m26 0 h10 m0 0 h6 m23 -572 h-3"/>
   <polygon points="259 17 267 13 267 21"/>
   <polygon points="259 17 251 13 251 21"/>
</svg>
