<?xml version="1.0" encoding="UTF-8"?>
<svg xmlns="http://www.w3.org/2000/svg" width="285" height="565">
   <defs>
      <style type="text/css">
    @namespace "http://www.w3.org/2000/svg";
    .line                 {fill: none; stroke: #332900; stroke-width: 1;}
    .bold-line            {stroke: #141000; shape-rendering: crispEdges; stroke-width: 2;}
    .thin-line            {stroke: #1F1800; shape-rendering: crispEdges}
    .filled               {fill: #332900; stroke: none;}
    text.terminal         {font-family: Verdana, Sans-serif;
                            font-size: 12px;
                            fill: #141000;
                            font-weight: bold;
                          }
    text.nonterminal      {font-family: Verdana, Sans-serif;
                            font-size: 12px;
                            fill: #1A1400;
                            font-weight: normal;
                          }
    text.regexp           {font-family: Verdana, Sans-serif;
                            font-size: 12px;
                            fill: #1F1800;
                            font-weight: normal;
                          }
    rect, circle, polygon {fill: #332900; stroke: #332900;}
    rect.terminal         {fill: #FFDB4D; stroke: #332900; stroke-width: 1;}
    rect.nonterminal      {fill: #FFEC9E; stroke: #332900; stroke-width: 1;}
    rect.text             {fill: none; stroke: none;}
    polygon.regexp        {fill: #FFF4C7; stroke: #332900; stroke-width: 1;}
  </style>
   </defs>
   <polygon points="9 17 1 13 1 21"/>
   <polygon points="17 17 9 13 9 21"/>
   <a xmlns:xlink="http://www.w3.org/1999/xlink"
      xlink:href="#GlobalVarDecl"
      xlink:title="GlobalVarDecl">
      <rect x="51" y="3" width="108" height="32"/>
      <rect x="49" y="1" width="108" height="32" class="nonterminal"/>
      <text class="nonterminal" x="59" y="21">GlobalVarDecl</text>
   </a>
   <a xmlns:xlink="http://www.w3.org/1999/xlink"
      xlink:href="#FunctionDecl"
      xlink:title="FunctionDecl">
      <rect x="51" y="47" width="100" height="32"/>
      <rect x="49" y="45" width="100" height="32" class="nonterminal"/>
      <text class="nonterminal" x="59" y="65">FunctionDecl</text>
   </a>
   <a xmlns:xlink="http://www.w3.org/1999/xlink"
      xlink:href="#ProcessDecl"
      xlink:title="ProcessDecl">
      <rect x="51" y="91" width="96" height="32"/>
      <rect x="49" y="89" width="96" height="32" class="nonterminal"/>
      <text class="nonterminal" x="59" y="109">ProcessDecl</text>
   </a>
   <rect x="187" y="91" width="30" height="32" rx="10"/>
   <rect x="185"
         y="89"
         width="30"
         height="32"
         class="terminal"
         rx="10"/>
   <text class="terminal" x="195" y="109">G</text>
   <rect x="187" y="135" width="24" height="32" rx="10"/>
   <rect x="185"
         y="133"
         width="24"
         height="32"
         class="terminal"
         rx="10"/>
   <text class="terminal" x="195" y="153">l</text>
   <rect x="187" y="179" width="28" height="32" rx="10"/>
   <rect x="185"
         y="177"
         width="28"
         height="32"
         class="terminal"
         rx="10"/>
   <text class="terminal" x="195" y="197">o</text>
   <rect x="187" y="223" width="28" height="32" rx="10"/>
   <rect x="185"
         y="221"
         width="28"
         height="32"
         class="terminal"
         rx="10"/>
   <text class="terminal" x="195" y="241">b</text>
   <rect x="187" y="267" width="28" height="32" rx="10"/>
   <rect x="185"
         y="265"
         width="28"
         height="32"
         class="terminal"
         rx="10"/>
   <text class="terminal" x="195" y="285">a</text>
   <rect x="187" y="311" width="28" height="32" rx="10"/>
   <rect x="185"
         y="309"
         width="28"
         height="32"
         class="terminal"
         rx="10"/>
   <text class="terminal" x="195" y="329">L</text>
   <rect x="187" y="355" width="24" height="32" rx="10"/>
   <rect x="185"
         y="353"
         width="24"
         height="32"
         class="terminal"
         rx="10"/>
   <text class="terminal" x="195" y="373">i</text>
   <rect x="187" y="399" width="26" height="32" rx="10"/>
   <rect x="185"
         y="397"
         width="26"
         height="32"
         class="terminal"
         rx="10"/>
   <text class="terminal" x="195" y="417">s</text>
   <rect x="187" y="443" width="24" height="32" rx="10"/>
   <rect x="185"
         y="441"
         width="24"
         height="32"
         class="terminal"
         rx="10"/>
   <text class="terminal" x="195" y="461">t</text>
   <rect x="187" y="487" width="28" height="32" rx="10"/>
   <rect x="185"
         y="485"
         width="28"
         height="32"
         class="terminal"
         rx="10"/>
   <text class="terminal" x="195" y="505">R</text>
   <rect x="187" y="531" width="28" height="32" rx="10"/>
   <rect x="185"
         y="529"
         width="28"
         height="32"
         class="terminal"
         rx="10"/>
   <text class="terminal" x="195" y="549">e</text>
   <path class="line"
         d="m17 17 h2 m20 0 h10 m108 0 h10 m0 0 h78 m-226 0 h20 m206 0 h20 m-246 0 q10 0 10 10 m226 0 q0 -10 10 -10 m-236 10 v24 m226 0 v-24 m-226 24 q0 10 10 10 m206 0 q10 0 10 -10 m-216 10 h10 m100 0 h10 m0 0 h86 m-216 -10 v20 m226 0 v-20 m-226 20 v24 m226 0 v-24 m-226 24 q0 10 10 10 m206 0 q10 0 10 -10 m-216 10 h10 m96 0 h10 m20 0 h10 m30 0 h10 m-70 0 h20 m50 0 h20 m-90 0 q10 0 10 10 m70 0 q0 -10 10 -10 m-80 10 v24 m70 0 v-24 m-70 24 q0 10 10 10 m50 0 q10 0 10 -10 m-60 10 h10 m24 0 h10 m0 0 h6 m-60 -10 v20 m70 0 v-20 m-70 20 v24 m70 0 v-24 m-70 24 q0 10 10 10 m50 0 q10 0 10 -10 m-60 10 h10 m28 0 h10 m0 0 h2 m-60 -10 v20 m70 0 v-20 m-70 20 v24 m70 0 v-24 m-70 24 q0 10 10 10 m50 0 q10 0 10 -10 m-60 10 h10 m28 0 h10 m0 0 h2 m-60 -10 v20 m70 0 v-20 m-70 20 v24 m70 0 v-24 m-70 24 q0 10 10 10 m50 0 q10 0 10 -10 m-60 10 h10 m28 0 h10 m0 0 h2 m-60 -10 v20 m70 0 v-20 m-70 20 v24 m70 0 v-24 m-70 24 q0 10 10 10 m50 0 q10 0 10 -10 m-60 10 h10 m28 0 h10 m0 0 h2 m-60 -10 v20 m70 0 v-20 m-70 20 v24 m70 0 v-24 m-70 24 q0 10 10 10 m50 0 q10 0 10 -10 m-60 10 h10 m24 0 h10 m0 0 h6 m-60 -10 v20 m70 0 v-20 m-70 20 v24 m70 0 v-24 m-70 24 q0 10 10 10 m50 0 q10 0 10 -10 m-60 10 h10 m26 0 h10 m0 0 h4 m-60 -10 v20 m70 0 v-20 m-70 20 v24 m70 0 v-24 m-70 24 q0 10 10 10 m50 0 q10 0 10 -10 m-60 10 h10 m24 0 h10 m0 0 h6 m-60 -10 v20 m70 0 v-20 m-70 20 v24 m70 0 v-24 m-70 24 q0 10 10 10 m50 0 q10 0 10 -10 m-60 10 h10 m28 0 h10 m0 0 h2 m-60 -10 v20 m70 0 v-20 m-70 20 v24 m70 0 v-24 m-70 24 q0 10 10 10 m50 0 q10 0 10 -10 m-60 10 h10 m28 0 h10 m0 0 h2 m43 -528 h-3"/>
   <polygon points="275 17 283 13 283 21"/>
   <polygon points="275 17 267 13 267 21"/>
</svg>
