<?xml version="1.0" encoding="UTF-8"?>
<svg xmlns="http://www.w3.org/2000/svg" width="487" height="113">
   <defs>
      <style type="text/css">
    @namespace "http://www.w3.org/2000/svg";
    .line                 {fill: none; stroke: #000033; stroke-width: 1;}
    .bold-line            {stroke: #E0E0FF; shape-rendering: crispEdges; stroke-width: 2;}
    .thin-line            {stroke: #00001F; shape-rendering: crispEdges}
    .filled               {fill: #000033; stroke: none;}
    text.terminal         {font-family: Verdana, Sans-serif;
                            font-size: 12px;
                            fill: #E0E0FF;
                            font-weight: bold;
                          }
    text.nonterminal      {font-family: Verdana, Sans-serif;
                            font-size: 12px;
                            fill: #00001A;
                            font-weight: normal;
                          }
    text.regexp           {font-family: Verdana, Sans-serif;
                            font-size: 12px;
                            fill: #00001F;
                            font-weight: normal;
                          }
    rect, circle, polygon {fill: #000033; stroke: #000033;}
    rect.terminal         {fill: #4D4DFF; stroke: #000033; stroke-width: 1;}
    rect.nonterminal      {fill: #9E9EFF; stroke: #000033; stroke-width: 1;}
    rect.text             {fill: none; stroke: none;}
    polygon.regexp        {fill: #C7C7FF; stroke: #000033; stroke-width: 1;}
  </style>
   </defs>
   <polygon points="9 61 1 57 1 65"/>
   <polygon points="17 61 9 57 9 65"/>
   <rect x="31" y="47" width="28" height="32" rx="10"/>
   <rect x="29"
         y="45"
         width="28"
         height="32"
         class="terminal"
         rx="10"/>
   <text class="terminal" x="39" y="65">if</text>
   <a xmlns:xlink="http://www.w3.org/1999/xlink"
      xlink:href="#expression"
      xlink:title="expression">
      <rect x="99" y="47" width="90" height="32"/>
      <rect x="97" y="45" width="90" height="32" class="nonterminal"/>
      <text class="nonterminal" x="107" y="65">expression</text>
   </a>
   <a xmlns:xlink="http://www.w3.org/1999/xlink"
      xlink:href="#block"
      xlink:title="block">
      <rect x="209" y="47" width="52" height="32"/>
      <rect x="207" y="45" width="52" height="32" class="nonterminal"/>
      <text class="nonterminal" x="217" y="65">block</text>
   </a>
   <rect x="99" y="3" width="64" height="32" rx="10"/>
   <rect x="97"
         y="1"
         width="64"
         height="32"
         class="terminal"
         rx="10"/>
   <text class="terminal" x="107" y="21">else_if</text>
   <rect x="321" y="79" width="46" height="32" rx="10"/>
   <rect x="319"
         y="77"
         width="46"
         height="32"
         class="terminal"
         rx="10"/>
   <text class="terminal" x="329" y="97">else</text>
   <a xmlns:xlink="http://www.w3.org/1999/xlink"
      xlink:href="#block"
      xlink:title="block">
      <rect x="387" y="79" width="52" height="32"/>
      <rect x="385" y="77" width="52" height="32" class="nonterminal"/>
      <text class="nonterminal" x="395" y="97">block</text>
   </a>
   <path class="line"
         d="m17 61 h2 m0 0 h10 m28 0 h10 m20 0 h10 m90 0 h10 m0 0 h10 m52 0 h10 m-202 0 l20 0 m-1 0 q-9 0 -9 -10 l0 -24 q0 -10 10 -10 m182 44 l20 0 m-20 0 q10 0 10 -10 l0 -24 q0 -10 -10 -10 m-182 0 h10 m64 0 h10 m0 0 h98 m40 44 h10 m0 0 h128 m-158 0 h20 m138 0 h20 m-178 0 q10 0 10 10 m158 0 q0 -10 10 -10 m-168 10 v12 m158 0 v-12 m-158 12 q0 10 10 10 m138 0 q10 0 10 -10 m-148 10 h10 m46 0 h10 m0 0 h10 m52 0 h10 m23 -32 h-3"/>
   <polygon points="477 61 485 57 485 65"/>
   <polygon points="477 61 469 57 469 65"/>
</svg>
