<?xml version="1.0" encoding="UTF-8"?>
<svg xmlns="http://www.w3.org/2000/svg" width="239" height="477">
   <defs>
      <style type="text/css">
    @namespace "http://www.w3.org/2000/svg";
    .line                 {fill: none; stroke: #332900; stroke-width: 1;}
    .bold-line            {stroke: #141000; shape-rendering: crispEdges; stroke-width: 2;}
    .thin-line            {stroke: #1F1800; shape-rendering: crispEdges}
    .filled               {fill: #332900; stroke: none;}
    text.terminal         {font-family: Verdana, Sans-serif;
                            font-size: 12px;
                            fill: #141000;
                            font-weight: bold;
                          }
    text.nonterminal      {font-family: Verdana, Sans-serif;
                            font-size: 12px;
                            fill: #1A1400;
                            font-weight: normal;
                          }
    text.regexp           {font-family: Verdana, Sans-serif;
                            font-size: 12px;
                            fill: #1F1800;
                            font-weight: normal;
                          }
    rect, circle, polygon {fill: #332900; stroke: #332900;}
    rect.terminal         {fill: #FFDB4D; stroke: #332900; stroke-width: 1;}
    rect.nonterminal      {fill: #FFEC9E; stroke: #332900; stroke-width: 1;}
    rect.text             {fill: none; stroke: none;}
    polygon.regexp        {fill: #FFF4C7; stroke: #332900; stroke-width: 1;}
  </style>
   </defs>
   <polygon points="9 17 1 13 1 21"/>
   <polygon points="17 17 9 13 9 21"/>
   <a xmlns:xlink="http://www.w3.org/1999/xlink"
      xlink:href="#ImportDecl"
      xlink:title="ImportDecl">
      <rect x="31" y="3" width="88" height="32"/>
      <rect x="29" y="1" width="88" height="32" class="nonterminal"/>
      <text class="nonterminal" x="39" y="21">ImportDecl</text>
   </a>
   <rect x="159" y="3" width="26" height="32" rx="10"/>
   <rect x="157"
         y="1"
         width="26"
         height="32"
         class="terminal"
         rx="10"/>
   <text class="terminal" x="167" y="21">I</text>
   <rect x="159" y="47" width="32" height="32" rx="10"/>
   <rect x="157"
         y="45"
         width="32"
         height="32"
         class="terminal"
         rx="10"/>
   <text class="terminal" x="167" y="65">m</text>
   <rect x="159" y="91" width="28" height="32" rx="10"/>
   <rect x="157"
         y="89"
         width="28"
         height="32"
         class="terminal"
         rx="10"/>
   <text class="terminal" x="167" y="109">p</text>
   <rect x="159" y="135" width="28" height="32" rx="10"/>
   <rect x="157"
         y="133"
         width="28"
         height="32"
         class="terminal"
         rx="10"/>
   <text class="terminal" x="167" y="153">o</text>
   <rect x="159" y="179" width="26" height="32" rx="10"/>
   <rect x="157"
         y="177"
         width="26"
         height="32"
         class="terminal"
         rx="10"/>
   <text class="terminal" x="167" y="197">r</text>
   <rect x="159" y="223" width="24" height="32" rx="10"/>
   <rect x="157"
         y="221"
         width="24"
         height="32"
         class="terminal"
         rx="10"/>
   <text class="terminal" x="167" y="241">t</text>
   <rect x="159" y="267" width="28" height="32" rx="10"/>
   <rect x="157"
         y="265"
         width="28"
         height="32"
         class="terminal"
         rx="10"/>
   <text class="terminal" x="167" y="285">L</text>
   <rect x="159" y="311" width="24" height="32" rx="10"/>
   <rect x="157"
         y="309"
         width="24"
         height="32"
         class="terminal"
         rx="10"/>
   <text class="terminal" x="167" y="329">i</text>
   <rect x="159" y="355" width="26" height="32" rx="10"/>
   <rect x="157"
         y="353"
         width="26"
         height="32"
         class="terminal"
         rx="10"/>
   <text class="terminal" x="167" y="373">s</text>
   <rect x="159" y="399" width="28" height="32" rx="10"/>
   <rect x="157"
         y="397"
         width="28"
         height="32"
         class="terminal"
         rx="10"/>
   <text class="terminal" x="167" y="417">R</text>
   <rect x="159" y="443" width="28" height="32" rx="10"/>
   <rect x="157"
         y="441"
         width="28"
         height="32"
         class="terminal"
         rx="10"/>
   <text class="terminal" x="167" y="461">e</text>
   <path class="line"
         d="m17 17 h2 m0 0 h10 m88 0 h10 m20 0 h10 m26 0 h10 m0 0 h6 m-72 0 h20 m52 0 h20 m-92 0 q10 0 10 10 m72 0 q0 -10 10 -10 m-82 10 v24 m72 0 v-24 m-72 24 q0 10 10 10 m52 0 q10 0 10 -10 m-62 10 h10 m32 0 h10 m-62 -10 v20 m72 0 v-20 m-72 20 v24 m72 0 v-24 m-72 24 q0 10 10 10 m52 0 q10 0 10 -10 m-62 10 h10 m28 0 h10 m0 0 h4 m-62 -10 v20 m72 0 v-20 m-72 20 v24 m72 0 v-24 m-72 24 q0 10 10 10 m52 0 q10 0 10 -10 m-62 10 h10 m28 0 h10 m0 0 h4 m-62 -10 v20 m72 0 v-20 m-72 20 v24 m72 0 v-24 m-72 24 q0 10 10 10 m52 0 q10 0 10 -10 m-62 10 h10 m26 0 h10 m0 0 h6 m-62 -10 v20 m72 0 v-20 m-72 20 v24 m72 0 v-24 m-72 24 q0 10 10 10 m52 0 q10 0 10 -10 m-62 10 h10 m24 0 h10 m0 0 h8 m-62 -10 v20 m72 0 v-20 m-72 20 v24 m72 0 v-24 m-72 24 q0 10 10 10 m52 0 q10 0 10 -10 m-62 10 h10 m28 0 h10 m0 0 h4 m-62 -10 v20 m72 0 v-20 m-72 20 v24 m72 0 v-24 m-72 24 q0 10 10 10 m52 0 q10 0 10 -10 m-62 10 h10 m24 0 h10 m0 0 h8 m-62 -10 v20 m72 0 v-20 m-72 20 v24 m72 0 v-24 m-72 24 q0 10 10 10 m52 0 q10 0 10 -10 m-62 10 h10 m26 0 h10 m0 0 h6 m-62 -10 v20 m72 0 v-20 m-72 20 v24 m72 0 v-24 m-72 24 q0 10 10 10 m52 0 q10 0 10 -10 m-62 10 h10 m28 0 h10 m0 0 h4 m-62 -10 v20 m72 0 v-20 m-72 20 v24 m72 0 v-24 m-72 24 q0 10 10 10 m52 0 q10 0 10 -10 m-62 10 h10 m28 0 h10 m0 0 h4 m23 -440 h-3"/>
   <polygon points="229 17 237 13 237 21"/>
   <polygon points="229 17 221 13 221 21"/>
</svg>
