<?xml version="1.0" encoding="UTF-8"?>
<svg xmlns="http://www.w3.org/2000/svg" width="219" height="477">
   <defs>
      <style type="text/css">
    @namespace "http://www.w3.org/2000/svg";
    .line                 {fill: none; stroke: #332900; stroke-width: 1;}
    .bold-line            {stroke: #141000; shape-rendering: crispEdges; stroke-width: 2;}
    .thin-line            {stroke: #1F1800; shape-rendering: crispEdges}
    .filled               {fill: #332900; stroke: none;}
    text.terminal         {font-family: Verdana, Sans-serif;
                            font-size: 12px;
                            fill: #141000;
                            font-weight: bold;
                          }
    text.nonterminal      {font-family: Verdana, Sans-serif;
                            font-size: 12px;
                            fill: #1A1400;
                            font-weight: normal;
                          }
    text.regexp           {font-family: Verdana, Sans-serif;
                            font-size: 12px;
                            fill: #1F1800;
                            font-weight: normal;
                          }
    rect, circle, polygon {fill: #332900; stroke: #332900;}
    rect.terminal         {fill: #FFDB4D; stroke: #332900; stroke-width: 1;}
    rect.nonterminal      {fill: #FFEC9E; stroke: #332900; stroke-width: 1;}
    rect.text             {fill: none; stroke: none;}
    polygon.regexp        {fill: #FFF4C7; stroke: #332900; stroke-width: 1;}
  </style>
   </defs>
   <polygon points="9 17 1 13 1 21"/>
   <polygon points="17 17 9 13 9 21"/>
   <rect x="31" y="3" width="26" height="32" rx="10"/>
   <rect x="29"
         y="1"
         width="26"
         height="32"
         class="terminal"
         rx="10"/>
   <text class="terminal" x="39" y="21">[</text>
   <rect x="97" y="3" width="28" height="32" rx="10"/>
   <rect x="95"
         y="1"
         width="28"
         height="32"
         class="terminal"
         rx="10"/>
   <text class="terminal" x="105" y="21">L</text>
   <rect x="97" y="47" width="24" height="32" rx="10"/>
   <rect x="95"
         y="45"
         width="24"
         height="32"
         class="terminal"
         rx="10"/>
   <text class="terminal" x="105" y="65">i</text>
   <rect x="97" y="91" width="26" height="32" rx="10"/>
   <rect x="95"
         y="89"
         width="26"
         height="32"
         class="terminal"
         rx="10"/>
   <text class="terminal" x="105" y="109">s</text>
   <rect x="97" y="135" width="24" height="32" rx="10"/>
   <rect x="95"
         y="133"
         width="24"
         height="32"
         class="terminal"
         rx="10"/>
   <text class="terminal" x="105" y="153">t</text>
   <rect x="97" y="179" width="28" height="32" rx="10"/>
   <rect x="95"
         y="177"
         width="28"
         height="32"
         class="terminal"
         rx="10"/>
   <text class="terminal" x="105" y="197">E</text>
   <rect x="97" y="223" width="28" height="32" rx="10"/>
   <rect x="95"
         y="221"
         width="28"
         height="32"
         class="terminal"
         rx="10"/>
   <text class="terminal" x="105" y="241">x</text>
   <rect x="97" y="267" width="28" height="32" rx="10"/>
   <rect x="95"
         y="265"
         width="28"
         height="32"
         class="terminal"
         rx="10"/>
   <text class="terminal" x="105" y="285">p</text>
   <rect x="97" y="311" width="26" height="32" rx="10"/>
   <rect x="95"
         y="309"
         width="26"
         height="32"
         class="terminal"
         rx="10"/>
   <text class="terminal" x="105" y="329">r</text>
   <rect x="97" y="355" width="28" height="32" rx="10"/>
   <rect x="95"
         y="353"
         width="28"
         height="32"
         class="terminal"
         rx="10"/>
   <text class="terminal" x="105" y="373">e</text>
   <rect x="97" y="399" width="28" height="32" rx="10"/>
   <rect x="95"
         y="397"
         width="28"
         height="32"
         class="terminal"
         rx="10"/>
   <text class="terminal" x="105" y="417">o</text>
   <rect x="97" y="443" width="28" height="32" rx="10"/>
   <rect x="95"
         y="441"
         width="28"
         height="32"
         class="terminal"
         rx="10"/>
   <text class="terminal" x="105" y="461">n</text>
   <rect x="165" y="3" width="26" height="32" rx="10"/>
   <rect x="163"
         y="1"
         width="26"
         height="32"
         class="terminal"
         rx="10"/>
   <text class="terminal" x="173" y="21">]</text>
   <path class="line"
         d="m17 17 h2 m0 0 h10 m26 0 h10 m20 0 h10 m28 0 h10 m-68 0 h20 m48 0 h20 m-88 0 q10 0 10 10 m68 0 q0 -10 10 -10 m-78 10 v24 m68 0 v-24 m-68 24 q0 10 10 10 m48 0 q10 0 10 -10 m-58 10 h10 m24 0 h10 m0 0 h4 m-58 -10 v20 m68 0 v-20 m-68 20 v24 m68 0 v-24 m-68 24 q0 10 10 10 m48 0 q10 0 10 -10 m-58 10 h10 m26 0 h10 m0 0 h2 m-58 -10 v20 m68 0 v-20 m-68 20 v24 m68 0 v-24 m-68 24 q0 10 10 10 m48 0 q10 0 10 -10 m-58 10 h10 m24 0 h10 m0 0 h4 m-58 -10 v20 m68 0 v-20 m-68 20 v24 m68 0 v-24 m-68 24 q0 10 10 10 m48 0 q10 0 10 -10 m-58 10 h10 m28 0 h10 m-58 -10 v20 m68 0 v-20 m-68 20 v24 m68 0 v-24 m-68 24 q0 10 10 10 m48 0 q10 0 10 -10 m-58 10 h10 m28 0 h10 m-58 -10 v20 m68 0 v-20 m-68 20 v24 m68 0 v-24 m-68 24 q0 10 10 10 m48 0 q10 0 10 -10 m-58 10 h10 m28 0 h10 m-58 -10 v20 m68 0 v-20 m-68 20 v24 m68 0 v-24 m-68 24 q0 10 10 10 m48 0 q10 0 10 -10 m-58 10 h10 m26 0 h10 m0 0 h2 m-58 -10 v20 m68 0 v-20 m-68 20 v24 m68 0 v-24 m-68 24 q0 10 10 10 m48 0 q10 0 10 -10 m-58 10 h10 m28 0 h10 m-58 -10 v20 m68 0 v-20 m-68 20 v24 m68 0 v-24 m-68 24 q0 10 10 10 m48 0 q10 0 10 -10 m-58 10 h10 m28 0 h10 m-58 -10 v20 m68 0 v-20 m-68 20 v24 m68 0 v-24 m-68 24 q0 10 10 10 m48 0 q10 0 10 -10 m-58 10 h10 m28 0 h10 m20 -440 h10 m26 0 h10 m3 0 h-3"/>
   <polygon points="209 17 217 13 217 21"/>
   <polygon points="209 17 201 13 201 21"/>
</svg>
