<?xml version="1.0" encoding="UTF-8"?>
<svg xmlns="http://www.w3.org/2000/svg" width="233" height="257">
   <defs>
      <style type="text/css">
    @namespace "http://www.w3.org/2000/svg";
    .line                 {fill: none; stroke: #000033; stroke-width: 1;}
    .bold-line            {stroke: #E0E0FF; shape-rendering: crispEdges; stroke-width: 2;}
    .thin-line            {stroke: #00001F; shape-rendering: crispEdges}
    .filled               {fill: #000033; stroke: none;}
    text.terminal         {font-family: Verdana, Sans-serif;
                            font-size: 12px;
                            fill: #E0E0FF;
                            font-weight: bold;
                          }
    text.nonterminal      {font-family: Verdana, Sans-serif;
                            font-size: 12px;
                            fill: #00001A;
                            font-weight: normal;
                          }
    text.regexp           {font-family: Verdana, Sans-serif;
                            font-size: 12px;
                            fill: #00001F;
                            font-weight: normal;
                          }
    rect, circle, polygon {fill: #000033; stroke: #000033;}
    rect.terminal         {fill: #4D4DFF; stroke: #000033; stroke-width: 1;}
    rect.nonterminal      {fill: #9E9EFF; stroke: #000033; stroke-width: 1;}
    rect.text             {fill: none; stroke: none;}
    polygon.regexp        {fill: #C7C7FF; stroke: #000033; stroke-width: 1;}
  </style>
   </defs>
   <polygon points="9 17 1 13 1 21"/>
   <polygon points="17 17 9 13 9 21"/>
   <rect x="51" y="3" width="44" height="32" rx="10"/>
   <rect x="49"
         y="1"
         width="44"
         height="32"
         class="terminal"
         rx="10"/>
   <text class="terminal" x="59" y="21">null</text>
   <rect x="51" y="47" width="48" height="32" rx="10"/>
   <rect x="49"
         y="45"
         width="48"
         height="32"
         class="terminal"
         rx="10"/>
   <text class="terminal" x="59" y="65">true</text>
   <rect x="51" y="91" width="52" height="32" rx="10"/>
   <rect x="49"
         y="89"
         width="52"
         height="32"
         class="terminal"
         rx="10"/>
   <text class="terminal" x="59" y="109">false</text>
   <a xmlns:xlink="http://www.w3.org/1999/xlink"
      xlink:href="#DECIMAL_LITERAL"
      xlink:title="DECIMAL_LITERAL">
      <rect x="51" y="135" width="134" height="32"/>
      <rect x="49" y="133" width="134" height="32" class="nonterminal"/>
      <text class="nonterminal" x="59" y="153">DECIMAL_LITERAL</text>
   </a>
   <a xmlns:xlink="http://www.w3.org/1999/xlink"
      xlink:href="#INTEGER_LITERAL"
      xlink:title="INTEGER_LITERAL">
      <rect x="51" y="179" width="132" height="32"/>
      <rect x="49" y="177" width="132" height="32" class="nonterminal"/>
      <text class="nonterminal" x="59" y="197">INTEGER_LITERAL</text>
   </a>
   <a xmlns:xlink="http://www.w3.org/1999/xlink"
      xlink:href="#STRING_LITERAL"
      xlink:title="STRING_LITERAL">
      <rect x="51" y="223" width="124" height="32"/>
      <rect x="49" y="221" width="124" height="32" class="nonterminal"/>
      <text class="nonterminal" x="59" y="241">STRING_LITERAL</text>
   </a>
   <path class="line"
         d="m17 17 h2 m20 0 h10 m44 0 h10 m0 0 h90 m-174 0 h20 m154 0 h20 m-194 0 q10 0 10 10 m174 0 q0 -10 10 -10 m-184 10 v24 m174 0 v-24 m-174 24 q0 10 10 10 m154 0 q10 0 10 -10 m-164 10 h10 m48 0 h10 m0 0 h86 m-164 -10 v20 m174 0 v-20 m-174 20 v24 m174 0 v-24 m-174 24 q0 10 10 10 m154 0 q10 0 10 -10 m-164 10 h10 m52 0 h10 m0 0 h82 m-164 -10 v20 m174 0 v-20 m-174 20 v24 m174 0 v-24 m-174 24 q0 10 10 10 m154 0 q10 0 10 -10 m-164 10 h10 m134 0 h10 m-164 -10 v20 m174 0 v-20 m-174 20 v24 m174 0 v-24 m-174 24 q0 10 10 10 m154 0 q10 0 10 -10 m-164 10 h10 m132 0 h10 m0 0 h2 m-164 -10 v20 m174 0 v-20 m-174 20 v24 m174 0 v-24 m-174 24 q0 10 10 10 m154 0 q10 0 10 -10 m-164 10 h10 m124 0 h10 m0 0 h10 m23 -220 h-3"/>
   <polygon points="223 17 231 13 231 21"/>
   <polygon points="223 17 215 13 215 21"/>
</svg>
