<?xml version="1.0" encoding="UTF-8"?>
<svg xmlns="http://www.w3.org/2000/svg" width="225" height="169">
   <defs>
      <style type="text/css">
    @namespace "http://www.w3.org/2000/svg";
    .line                 {fill: none; stroke: #000033; stroke-width: 1;}
    .bold-line            {stroke: #E0E0FF; shape-rendering: crispEdges; stroke-width: 2;}
    .thin-line            {stroke: #00001F; shape-rendering: crispEdges}
    .filled               {fill: #000033; stroke: none;}
    text.terminal         {font-family: Verdana, Sans-serif;
                            font-size: 12px;
                            fill: #E0E0FF;
                            font-weight: bold;
                          }
    text.nonterminal      {font-family: Verdana, Sans-serif;
                            font-size: 12px;
                            fill: #00001A;
                            font-weight: normal;
                          }
    text.regexp           {font-family: Verdana, Sans-serif;
                            font-size: 12px;
                            fill: #00001F;
                            font-weight: normal;
                          }
    rect, circle, polygon {fill: #000033; stroke: #000033;}
    rect.terminal         {fill: #4D4DFF; stroke: #000033; stroke-width: 1;}
    rect.nonterminal      {fill: #9E9EFF; stroke: #000033; stroke-width: 1;}
    rect.text             {fill: none; stroke: none;}
    polygon.regexp        {fill: #C7C7FF; stroke: #000033; stroke-width: 1;}
  </style>
   </defs>
   <polygon points="9 149 1 145 1 153"/>
   <polygon points="17 149 9 145 9 153"/>
   <a xmlns:xlink="http://www.w3.org/1999/xlink"
      xlink:href="#unaryExpression"
      xlink:title="unaryExpression">
      <rect x="51" y="135" width="126" height="32"/>
      <rect x="49" y="133" width="126" height="32" class="nonterminal"/>
      <text class="nonterminal" x="59" y="153">unaryExpression</text>
   </a>
   <rect x="51" y="91" width="28" height="32" rx="10"/>
   <rect x="49"
         y="89"
         width="28"
         height="32"
         class="terminal"
         rx="10"/>
   <text class="terminal" x="59" y="109">*</text>
   <rect x="51" y="47" width="28" height="32" rx="10"/>
   <rect x="49"
         y="45"
         width="28"
         height="32"
         class="terminal"
         rx="10"/>
   <text class="terminal" x="59" y="65">/</text>
   <rect x="51" y="3" width="34" height="32" rx="10"/>
   <rect x="49"
         y="1"
         width="34"
         height="32"
         class="terminal"
         rx="10"/>
   <text class="terminal" x="59" y="21">%</text>
   <path class="line"
         d="m17 149 h2 m20 0 h10 m126 0 h10 m-166 0 l20 0 m-1 0 q-9 0 -9 -10 l0 -24 q0 -10 10 -10 m146 44 l20 0 m-20 0 q10 0 10 -10 l0 -24 q0 -10 -10 -10 m-146 0 h10 m28 0 h10 m0 0 h98 m-156 10 l0 -44 q0 -10 10 -10 m156 54 l0 -44 q0 -10 -10 -10 m-146 0 h10 m28 0 h10 m0 0 h98 m-156 10 l0 -44 q0 -10 10 -10 m156 54 l0 -44 q0 -10 -10 -10 m-146 0 h10 m34 0 h10 m0 0 h92 m23 132 h-3"/>
   <polygon points="215 149 223 145 223 153"/>
   <polygon points="215 149 207 145 207 153"/>
</svg>
