<?xml version="1.0" encoding="UTF-8"?>
<svg xmlns="http://www.w3.org/2000/svg" width="345" height="71">
   <defs>
      <style type="text/css">
    @namespace "http://www.w3.org/2000/svg";
    .line                 {fill: none; stroke: #000033; stroke-width: 1;}
    .bold-line            {stroke: #E0E0FF; shape-rendering: crispEdges; stroke-width: 2;}
    .thin-line            {stroke: #00001F; shape-rendering: crispEdges}
    .filled               {fill: #000033; stroke: none;}
    text.terminal         {font-family: Verdana, Sans-serif;
                            font-size: 12px;
                            fill: #E0E0FF;
                            font-weight: bold;
                          }
    text.nonterminal      {font-family: Verdana, Sans-serif;
                            font-size: 12px;
                            fill: #00001A;
                            font-weight: normal;
                          }
    text.regexp           {font-family: Verdana, Sans-serif;
                            font-size: 12px;
                            fill: #00001F;
                            font-weight: normal;
                          }
    rect, circle, polygon {fill: #000033; stroke: #000033;}
    rect.terminal         {fill: #4D4DFF; stroke: #000033; stroke-width: 1;}
    rect.nonterminal      {fill: #9E9EFF; stroke: #000033; stroke-width: 1;}
    rect.text             {fill: none; stroke: none;}
    polygon.regexp        {fill: #C7C7FF; stroke: #000033; stroke-width: 1;}
  </style>
   </defs>
   <polygon points="9 51 1 47 1 55"/>
   <polygon points="17 51 9 47 9 55"/>
   <a xmlns:xlink="http://www.w3.org/1999/xlink"
      xlink:href="#primaryExpression"
      xlink:title="primaryExpression">
      <rect x="31" y="37" width="138" height="32"/>
      <rect x="29" y="35" width="138" height="32" class="nonterminal"/>
      <text class="nonterminal" x="39" y="55">primaryExpression</text>
   </a>
   <a xmlns:xlink="http://www.w3.org/1999/xlink"
      xlink:href="#postfixPart"
      xlink:title="postfixPart">
      <rect x="209" y="3" width="88" height="32"/>
      <rect x="207" y="1" width="88" height="32" class="nonterminal"/>
      <text class="nonterminal" x="217" y="21">postfixPart</text>
   </a>
   <path class="line"
         d="m17 51 h2 m0 0 h10 m138 0 h10 m20 0 h10 m0 0 h98 m-128 0 l20 0 m-1 0 q-9 0 -9 -10 l0 -14 q0 -10 10 -10 m108 34 l20 0 m-20 0 q10 0 10 -10 l0 -14 q0 -10 -10 -10 m-108 0 h10 m88 0 h10 m23 34 h-3"/>
   <polygon points="335 51 343 47 343 55"/>
   <polygon points="335 51 327 47 327 55"/>
</svg>
