<?xml version="1.0" encoding="UTF-8"?>
<svg xmlns="http://www.w3.org/2000/svg" width="281" height="213">
   <defs>
      <style type="text/css">
    @namespace "http://www.w3.org/2000/svg";
    .line                 {fill: none; stroke: #000033; stroke-width: 1;}
    .bold-line            {stroke: #E0E0FF; shape-rendering: crispEdges; stroke-width: 2;}
    .thin-line            {stroke: #00001F; shape-rendering: crispEdges}
    .filled               {fill: #000033; stroke: none;}
    text.terminal         {font-family: Verdana, Sans-serif;
                            font-size: 12px;
                            fill: #E0E0FF;
                            font-weight: bold;
                          }
    text.nonterminal      {font-family: Verdana, Sans-serif;
                            font-size: 12px;
                            fill: #00001A;
                            font-weight: normal;
                          }
    text.regexp           {font-family: Verdana, Sans-serif;
                            font-size: 12px;
                            fill: #00001F;
                            font-weight: normal;
                          }
    rect, circle, polygon {fill: #000033; stroke: #000033;}
    rect.terminal         {fill: #4D4DFF; stroke: #000033; stroke-width: 1;}
    rect.nonterminal      {fill: #9E9EFF; stroke: #000033; stroke-width: 1;}
    rect.text             {fill: none; stroke: none;}
    polygon.regexp        {fill: #C7C7FF; stroke: #000033; stroke-width: 1;}
  </style>
   </defs>
   <polygon points="9 17 1 13 1 21"/>
   <polygon points="17 17 9 13 9 21"/>
   <a xmlns:xlink="http://www.w3.org/1999/xlink"
      xlink:href="#literal"
      xlink:title="literal">
      <rect x="51" y="3" width="56" height="32"/>
      <rect x="49" y="1" width="56" height="32" class="nonterminal"/>
      <text class="nonterminal" x="59" y="21">literal</text>
   </a>
   <a xmlns:xlink="http://www.w3.org/1999/xlink"
      xlink:href="#IDENTIFIER"
      xlink:title="IDENTIFIER">
      <rect x="51" y="47" width="92" height="32"/>
      <rect x="49" y="45" width="92" height="32" class="nonterminal"/>
      <text class="nonterminal" x="59" y="65">IDENTIFIER</text>
   </a>
   <rect x="51" y="91" width="26" height="32" rx="10"/>
   <rect x="49"
         y="89"
         width="26"
         height="32"
         class="terminal"
         rx="10"/>
   <text class="terminal" x="59" y="109">(</text>
   <a xmlns:xlink="http://www.w3.org/1999/xlink"
      xlink:href="#expression"
      xlink:title="expression">
      <rect x="97" y="91" width="90" height="32"/>
      <rect x="95" y="89" width="90" height="32" class="nonterminal"/>
      <text class="nonterminal" x="105" y="109">expression</text>
   </a>
   <rect x="207" y="91" width="26" height="32" rx="10"/>
   <rect x="205"
         y="89"
         width="26"
         height="32"
         class="terminal"
         rx="10"/>
   <text class="terminal" x="215" y="109">)</text>
   <a xmlns:xlink="http://www.w3.org/1999/xlink"
      xlink:href="#listLiteral"
      xlink:title="listLiteral">
      <rect x="51" y="135" width="78" height="32"/>
      <rect x="49" y="133" width="78" height="32" class="nonterminal"/>
      <text class="nonterminal" x="59" y="153">listLiteral</text>
   </a>
   <a xmlns:xlink="http://www.w3.org/1999/xlink"
      xlink:href="#objectLiteral"
      xlink:title="objectLiteral">
      <rect x="51" y="179" width="98" height="32"/>
      <rect x="49" y="177" width="98" height="32" class="nonterminal"/>
      <text class="nonterminal" x="59" y="197">objectLiteral</text>
   </a>
   <path class="line"
         d="m17 17 h2 m20 0 h10 m56 0 h10 m0 0 h126 m-222 0 h20 m202 0 h20 m-242 0 q10 0 10 10 m222 0 q0 -10 10 -10 m-232 10 v24 m222 0 v-24 m-222 24 q0 10 10 10 m202 0 q10 0 10 -10 m-212 10 h10 m92 0 h10 m0 0 h90 m-212 -10 v20 m222 0 v-20 m-222 20 v24 m222 0 v-24 m-222 24 q0 10 10 10 m202 0 q10 0 10 -10 m-212 10 h10 m26 0 h10 m0 0 h10 m90 0 h10 m0 0 h10 m26 0 h10 m-212 -10 v20 m222 0 v-20 m-222 20 v24 m222 0 v-24 m-222 24 q0 10 10 10 m202 0 q10 0 10 -10 m-212 10 h10 m78 0 h10 m0 0 h104 m-212 -10 v20 m222 0 v-20 m-222 20 v24 m222 0 v-24 m-222 24 q0 10 10 10 m202 0 q10 0 10 -10 m-212 10 h10 m98 0 h10 m0 0 h84 m23 -176 h-3"/>
   <polygon points="271 17 279 13 279 21"/>
   <polygon points="271 17 263 13 263 21"/>
</svg>
