<?xml version="1.0" encoding="UTF-8"?>
<svg xmlns="http://www.w3.org/2000/svg" width="559" height="477">
   <defs>
      <style type="text/css">
    @namespace "http://www.w3.org/2000/svg";
    .line                 {fill: none; stroke: #332900; stroke-width: 1;}
    .bold-line            {stroke: #141000; shape-rendering: crispEdges; stroke-width: 2;}
    .thin-line            {stroke: #1F1800; shape-rendering: crispEdges}
    .filled               {fill: #332900; stroke: none;}
    text.terminal         {font-family: Verdana, Sans-serif;
                            font-size: 12px;
                            fill: #141000;
                            font-weight: bold;
                          }
    text.nonterminal      {font-family: Verdana, Sans-serif;
                            font-size: 12px;
                            fill: #1A1400;
                            font-weight: normal;
                          }
    text.regexp           {font-family: Verdana, Sans-serif;
                            font-size: 12px;
                            fill: #1F1800;
                            font-weight: normal;
                          }
    rect, circle, polygon {fill: #332900; stroke: #332900;}
    rect.terminal         {fill: #FFDB4D; stroke: #332900; stroke-width: 1;}
    rect.nonterminal      {fill: #FFEC9E; stroke: #332900; stroke-width: 1;}
    rect.text             {fill: none; stroke: none;}
    polygon.regexp        {fill: #FFF4C7; stroke: #332900; stroke-width: 1;}
  </style>
   </defs>
   <polygon points="9 17 1 13 1 21"/>
   <polygon points="17 17 9 13 9 21"/>
   <rect x="31" y="3" width="72" height="32" rx="10"/>
   <rect x="29"
         y="1"
         width="72"
         height="32"
         class="terminal"
         rx="10"/>
   <text class="terminal" x="39" y="21">process</text>
   <a xmlns:xlink="http://www.w3.org/1999/xlink"
      xlink:href="#ID"
      xlink:title="ID">
      <rect x="123" y="3" width="34" height="32"/>
      <rect x="121" y="1" width="34" height="32" class="nonterminal"/>
      <text class="nonterminal" x="131" y="21">ID</text>
   </a>
   <rect x="177" y="3" width="28" height="32" rx="10"/>
   <rect x="175"
         y="1"
         width="28"
         height="32"
         class="terminal"
         rx="10"/>
   <text class="terminal" x="185" y="21">{</text>
   <a xmlns:xlink="http://www.w3.org/1999/xlink"
      xlink:href="#StartNode"
      xlink:title="StartNode">
      <rect x="225" y="3" width="84" height="32"/>
      <rect x="223" y="1" width="84" height="32" class="nonterminal"/>
      <text class="nonterminal" x="233" y="21">StartNode</text>
   </a>
   <rect x="349" y="3" width="28" height="32" rx="10"/>
   <rect x="347"
         y="1"
         width="28"
         height="32"
         class="terminal"
         rx="10"/>
   <text class="terminal" x="357" y="21">P</text>
   <rect x="349" y="47" width="26" height="32" rx="10"/>
   <rect x="347"
         y="45"
         width="26"
         height="32"
         class="terminal"
         rx="10"/>
   <text class="terminal" x="357" y="65">r</text>
   <rect x="349" y="91" width="28" height="32" rx="10"/>
   <rect x="347"
         y="89"
         width="28"
         height="32"
         class="terminal"
         rx="10"/>
   <text class="terminal" x="357" y="109">o</text>
   <rect x="349" y="135" width="26" height="32" rx="10"/>
   <rect x="347"
         y="133"
         width="26"
         height="32"
         class="terminal"
         rx="10"/>
   <text class="terminal" x="357" y="153">c</text>
   <rect x="349" y="179" width="28" height="32" rx="10"/>
   <rect x="347"
         y="177"
         width="28"
         height="32"
         class="terminal"
         rx="10"/>
   <text class="terminal" x="357" y="197">e</text>
   <rect x="349" y="223" width="26" height="32" rx="10"/>
   <rect x="347"
         y="221"
         width="26"
         height="32"
         class="terminal"
         rx="10"/>
   <text class="terminal" x="357" y="241">s</text>
   <rect x="349" y="267" width="26" height="32" rx="10"/>
   <rect x="347"
         y="265"
         width="26"
         height="32"
         class="terminal"
         rx="10"/>
   <text class="terminal" x="357" y="285">I</text>
   <rect x="349" y="311" width="28" height="32" rx="10"/>
   <rect x="347"
         y="309"
         width="28"
         height="32"
         class="terminal"
         rx="10"/>
   <text class="terminal" x="357" y="329">n</text>
   <rect x="349" y="355" width="28" height="32" rx="10"/>
   <rect x="347"
         y="353"
         width="28"
         height="32"
         class="terminal"
         rx="10"/>
   <text class="terminal" x="357" y="373">L</text>
   <rect x="349" y="399" width="24" height="32" rx="10"/>
   <rect x="347"
         y="397"
         width="24"
         height="32"
         class="terminal"
         rx="10"/>
   <text class="terminal" x="357" y="417">i</text>
   <rect x="349" y="443" width="24" height="32" rx="10"/>
   <rect x="347"
         y="441"
         width="24"
         height="32"
         class="terminal"
         rx="10"/>
   <text class="terminal" x="357" y="461">t</text>
   <a xmlns:xlink="http://www.w3.org/1999/xlink"
      xlink:href="#EndList"
      xlink:title="EndList">
      <rect x="417" y="3" width="66" height="32"/>
      <rect x="415" y="1" width="66" height="32" class="nonterminal"/>
      <text class="nonterminal" x="425" y="21">EndList</text>
   </a>
   <rect x="503" y="3" width="28" height="32" rx="10"/>
   <rect x="501"
         y="1"
         width="28"
         height="32"
         class="terminal"
         rx="10"/>
   <text class="terminal" x="511" y="21">}</text>
   <path class="line"
         d="m17 17 h2 m0 0 h10 m72 0 h10 m0 0 h10 m34 0 h10 m0 0 h10 m28 0 h10 m0 0 h10 m84 0 h10 m20 0 h10 m28 0 h10 m-68 0 h20 m48 0 h20 m-88 0 q10 0 10 10 m68 0 q0 -10 10 -10 m-78 10 v24 m68 0 v-24 m-68 24 q0 10 10 10 m48 0 q10 0 10 -10 m-58 10 h10 m26 0 h10 m0 0 h2 m-58 -10 v20 m68 0 v-20 m-68 20 v24 m68 0 v-24 m-68 24 q0 10 10 10 m48 0 q10 0 10 -10 m-58 10 h10 m28 0 h10 m-58 -10 v20 m68 0 v-20 m-68 20 v24 m68 0 v-24 m-68 24 q0 10 10 10 m48 0 q10 0 10 -10 m-58 10 h10 m26 0 h10 m0 0 h2 m-58 -10 v20 m68 0 v-20 m-68 20 v24 m68 0 v-24 m-68 24 q0 10 10 10 m48 0 q10 0 10 -10 m-58 10 h10 m28 0 h10 m-58 -10 v20 m68 0 v-20 m-68 20 v24 m68 0 v-24 m-68 24 q0 10 10 10 m48 0 q10 0 10 -10 m-58 10 h10 m26 0 h10 m0 0 h2 m-58 -10 v20 m68 0 v-20 m-68 20 v24 m68 0 v-24 m-68 24 q0 10 10 10 m48 0 q10 0 10 -10 m-58 10 h10 m26 0 h10 m0 0 h2 m-58 -10 v20 m68 0 v-20 m-68 20 v24 m68 0 v-24 m-68 24 q0 10 10 10 m48 0 q10 0 10 -10 m-58 10 h10 m28 0 h10 m-58 -10 v20 m68 0 v-20 m-68 20 v24 m68 0 v-24 m-68 24 q0 10 10 10 m48 0 q10 0 10 -10 m-58 10 h10 m28 0 h10 m-58 -10 v20 m68 0 v-20 m-68 20 v24 m68 0 v-24 m-68 24 q0 10 10 10 m48 0 q10 0 10 -10 m-58 10 h10 m24 0 h10 m0 0 h4 m-58 -10 v20 m68 0 v-20 m-68 20 v24 m68 0 v-24 m-68 24 q0 10 10 10 m48 0 q10 0 10 -10 m-58 10 h10 m24 0 h10 m0 0 h4 m20 -440 h10 m66 0 h10 m0 0 h10 m28 0 h10 m3 0 h-3"/>
   <polygon points="549 17 557 13 557 21"/>
   <polygon points="549 17 541 13 541 21"/>
</svg>
