<?xml version="1.0" encoding="UTF-8"?>
<svg xmlns="http://www.w3.org/2000/svg" width="255" height="433">
   <defs>
      <style type="text/css">
    @namespace "http://www.w3.org/2000/svg";
    .line                 {fill: none; stroke: #000033; stroke-width: 1;}
    .bold-line            {stroke: #E0E0FF; shape-rendering: crispEdges; stroke-width: 2;}
    .thin-line            {stroke: #00001F; shape-rendering: crispEdges}
    .filled               {fill: #000033; stroke: none;}
    text.terminal         {font-family: Verdana, Sans-serif;
                            font-size: 12px;
                            fill: #E0E0FF;
                            font-weight: bold;
                          }
    text.nonterminal      {font-family: Verdana, Sans-serif;
                            font-size: 12px;
                            fill: #00001A;
                            font-weight: normal;
                          }
    text.regexp           {font-family: Verdana, Sans-serif;
                            font-size: 12px;
                            fill: #00001F;
                            font-weight: normal;
                          }
    rect, circle, polygon {fill: #000033; stroke: #000033;}
    rect.terminal         {fill: #4D4DFF; stroke: #000033; stroke-width: 1;}
    rect.nonterminal      {fill: #9E9EFF; stroke: #000033; stroke-width: 1;}
    rect.text             {fill: none; stroke: none;}
    polygon.regexp        {fill: #C7C7FF; stroke: #000033; stroke-width: 1;}
  </style>
   </defs>
   <polygon points="9 17 1 13 1 21"/>
   <polygon points="17 17 9 13 9 21"/>
   <a xmlns:xlink="http://www.w3.org/1999/xlink"
      xlink:href="#ifStatement"
      xlink:title="ifStatement">
      <rect x="51" y="3" width="94" height="32"/>
      <rect x="49" y="1" width="94" height="32" class="nonterminal"/>
      <text class="nonterminal" x="59" y="21">ifStatement</text>
   </a>
   <a xmlns:xlink="http://www.w3.org/1999/xlink"
      xlink:href="#whileStatement"
      xlink:title="whileStatement">
      <rect x="51" y="47" width="118" height="32"/>
      <rect x="49" y="45" width="118" height="32" class="nonterminal"/>
      <text class="nonterminal" x="59" y="65">whileStatement</text>
   </a>
   <a xmlns:xlink="http://www.w3.org/1999/xlink"
      xlink:href="#forEachStatement"
      xlink:title="forEachStatement">
      <rect x="51" y="91" width="134" height="32"/>
      <rect x="49" y="89" width="134" height="32" class="nonterminal"/>
      <text class="nonterminal" x="59" y="109">forEachStatement</text>
   </a>
   <a xmlns:xlink="http://www.w3.org/1999/xlink"
      xlink:href="#forRangeStatement"
      xlink:title="forRangeStatement">
      <rect x="51" y="135" width="144" height="32"/>
      <rect x="49" y="133" width="144" height="32" class="nonterminal"/>
      <text class="nonterminal" x="59" y="153">forRangeStatement</text>
   </a>
   <a xmlns:xlink="http://www.w3.org/1999/xlink"
      xlink:href="#tryCatchStatement"
      xlink:title="tryCatchStatement">
      <rect x="51" y="179" width="140" height="32"/>
      <rect x="49" y="177" width="140" height="32" class="nonterminal"/>
      <text class="nonterminal" x="59" y="197">tryCatchStatement</text>
   </a>
   <a xmlns:xlink="http://www.w3.org/1999/xlink"
      xlink:href="#throwStatement"
      xlink:title="throwStatement">
      <rect x="51" y="223" width="122" height="32"/>
      <rect x="49" y="221" width="122" height="32" class="nonterminal"/>
      <text class="nonterminal" x="59" y="241">throwStatement</text>
   </a>
   <rect x="51" y="267" width="58" height="32" rx="10"/>
   <rect x="49"
         y="265"
         width="58"
         height="32"
         class="terminal"
         rx="10"/>
   <text class="terminal" x="59" y="285">break</text>
   <rect x="51" y="311" width="78" height="32" rx="10"/>
   <rect x="49"
         y="309"
         width="78"
         height="32"
         class="terminal"
         rx="10"/>
   <text class="terminal" x="59" y="329">continue</text>
   <a xmlns:xlink="http://www.w3.org/1999/xlink"
      xlink:href="#returnStatement"
      xlink:title="returnStatement">
      <rect x="51" y="355" width="126" height="32"/>
      <rect x="49" y="353" width="126" height="32" class="nonterminal"/>
      <text class="nonterminal" x="59" y="373">returnStatement</text>
   </a>
   <a xmlns:xlink="http://www.w3.org/1999/xlink"
      xlink:href="#expressionStatement"
      xlink:title="expressionStatement">
      <rect x="51" y="399" width="156" height="32"/>
      <rect x="49" y="397" width="156" height="32" class="nonterminal"/>
      <text class="nonterminal" x="59" y="417">expressionStatement</text>
   </a>
   <path class="line"
         d="m17 17 h2 m20 0 h10 m94 0 h10 m0 0 h62 m-196 0 h20 m176 0 h20 m-216 0 q10 0 10 10 m196 0 q0 -10 10 -10 m-206 10 v24 m196 0 v-24 m-196 24 q0 10 10 10 m176 0 q10 0 10 -10 m-186 10 h10 m118 0 h10 m0 0 h38 m-186 -10 v20 m196 0 v-20 m-196 20 v24 m196 0 v-24 m-196 24 q0 10 10 10 m176 0 q10 0 10 -10 m-186 10 h10 m134 0 h10 m0 0 h22 m-186 -10 v20 m196 0 v-20 m-196 20 v24 m196 0 v-24 m-196 24 q0 10 10 10 m176 0 q10 0 10 -10 m-186 10 h10 m144 0 h10 m0 0 h12 m-186 -10 v20 m196 0 v-20 m-196 20 v24 m196 0 v-24 m-196 24 q0 10 10 10 m176 0 q10 0 10 -10 m-186 10 h10 m140 0 h10 m0 0 h16 m-186 -10 v20 m196 0 v-20 m-196 20 v24 m196 0 v-24 m-196 24 q0 10 10 10 m176 0 q10 0 10 -10 m-186 10 h10 m122 0 h10 m0 0 h34 m-186 -10 v20 m196 0 v-20 m-196 20 v24 m196 0 v-24 m-196 24 q0 10 10 10 m176 0 q10 0 10 -10 m-186 10 h10 m58 0 h10 m0 0 h98 m-186 -10 v20 m196 0 v-20 m-196 20 v24 m196 0 v-24 m-196 24 q0 10 10 10 m176 0 q10 0 10 -10 m-186 10 h10 m78 0 h10 m0 0 h78 m-186 -10 v20 m196 0 v-20 m-196 20 v24 m196 0 v-24 m-196 24 q0 10 10 10 m176 0 q10 0 10 -10 m-186 10 h10 m126 0 h10 m0 0 h30 m-186 -10 v20 m196 0 v-20 m-196 20 v24 m196 0 v-24 m-196 24 q0 10 10 10 m176 0 q10 0 10 -10 m-186 10 h10 m156 0 h10 m23 -396 h-3"/>
   <polygon points="245 17 253 13 253 21"/>
   <polygon points="245 17 237 13 237 21"/>
</svg>
