<?xml version="1.0" encoding="UTF-8"?>
<svg xmlns="http://www.w3.org/2000/svg" width="255" height="521">
   <defs>
      <style type="text/css">
    @namespace "http://www.w3.org/2000/svg";
    .line                 {fill: none; stroke: #332900; stroke-width: 1;}
    .bold-line            {stroke: #141000; shape-rendering: crispEdges; stroke-width: 2;}
    .thin-line            {stroke: #1F1800; shape-rendering: crispEdges}
    .filled               {fill: #332900; stroke: none;}
    text.terminal         {font-family: Verdana, Sans-serif;
                            font-size: 12px;
                            fill: #141000;
                            font-weight: bold;
                          }
    text.nonterminal      {font-family: Verdana, Sans-serif;
                            font-size: 12px;
                            fill: #1A1400;
                            font-weight: normal;
                          }
    text.regexp           {font-family: Verdana, Sans-serif;
                            font-size: 12px;
                            fill: #1F1800;
                            font-weight: normal;
                          }
    rect, circle, polygon {fill: #332900; stroke: #332900;}
    rect.terminal         {fill: #FFDB4D; stroke: #332900; stroke-width: 1;}
    rect.nonterminal      {fill: #FFEC9E; stroke: #332900; stroke-width: 1;}
    rect.text             {fill: none; stroke: none;}
    polygon.regexp        {fill: #FFF4C7; stroke: #332900; stroke-width: 1;}
  </style>
   </defs>
   <polygon points="9 17 1 13 1 21"/>
   <polygon points="17 17 9 13 9 21"/>
   <a xmlns:xlink="http://www.w3.org/1999/xlink"
      xlink:href="#AssignStmt"
      xlink:title="AssignStmt">
      <rect x="51" y="3" width="90" height="32"/>
      <rect x="49" y="1" width="90" height="32" class="nonterminal"/>
      <text class="nonterminal" x="59" y="21">AssignStmt</text>
   </a>
   <a xmlns:xlink="http://www.w3.org/1999/xlink"
      xlink:href="#GotoStmt"
      xlink:title="GotoStmt">
      <rect x="51" y="47" width="80" height="32"/>
      <rect x="49" y="45" width="80" height="32" class="nonterminal"/>
      <text class="nonterminal" x="59" y="65">GotoStmt</text>
   </a>
   <a xmlns:xlink="http://www.w3.org/1999/xlink"
      xlink:href="#IfStmt"
      xlink:title="IfStmt">
      <rect x="51" y="91" width="58" height="32"/>
      <rect x="49" y="89" width="58" height="32" class="nonterminal"/>
      <text class="nonterminal" x="59" y="109">IfStmt</text>
   </a>
   <a xmlns:xlink="http://www.w3.org/1999/xlink"
      xlink:href="#WhileStmt"
      xlink:title="WhileStmt">
      <rect x="51" y="135" width="84" height="32"/>
      <rect x="49" y="133" width="84" height="32" class="nonterminal"/>
      <text class="nonterminal" x="59" y="153">WhileStmt</text>
   </a>
   <a xmlns:xlink="http://www.w3.org/1999/xlink"
      xlink:href="#ForEachStmt"
      xlink:title="ForEachStmt">
      <rect x="51" y="179" width="100" height="32"/>
      <rect x="49" y="177" width="100" height="32" class="nonterminal"/>
      <text class="nonterminal" x="59" y="197">ForEachStmt</text>
   </a>
   <a xmlns:xlink="http://www.w3.org/1999/xlink"
      xlink:href="#ForRangeStmt"
      xlink:title="ForRangeStmt">
      <rect x="51" y="223" width="110" height="32"/>
      <rect x="49" y="221" width="110" height="32" class="nonterminal"/>
      <text class="nonterminal" x="59" y="241">ForRangeStmt</text>
   </a>
   <a xmlns:xlink="http://www.w3.org/1999/xlink"
      xlink:href="#TryCatchStmt"
      xlink:title="TryCatchStmt">
      <rect x="51" y="267" width="104" height="32"/>
      <rect x="49" y="265" width="104" height="32" class="nonterminal"/>
      <text class="nonterminal" x="59" y="285">TryCatchStmt</text>
   </a>
   <a xmlns:xlink="http://www.w3.org/1999/xlink"
      xlink:href="#ThrowStmt"
      xlink:title="ThrowStmt">
      <rect x="51" y="311" width="88" height="32"/>
      <rect x="49" y="309" width="88" height="32" class="nonterminal"/>
      <text class="nonterminal" x="59" y="329">ThrowStmt</text>
   </a>
   <a xmlns:xlink="http://www.w3.org/1999/xlink"
      xlink:href="#ReturnStmt"
      xlink:title="ReturnStmt">
      <rect x="51" y="355" width="92" height="32"/>
      <rect x="49" y="353" width="92" height="32" class="nonterminal"/>
      <text class="nonterminal" x="59" y="373">ReturnStmt</text>
   </a>
   <a xmlns:xlink="http://www.w3.org/1999/xlink"
      xlink:href="#GatewayStmtInAction"
      xlink:title="GatewayStmtInAction">
      <rect x="51" y="399" width="156" height="32"/>
      <rect x="49" y="397" width="156" height="32" class="nonterminal"/>
      <text class="nonterminal" x="59" y="417">GatewayStmtInAction</text>
   </a>
   <a xmlns:xlink="http://www.w3.org/1999/xlink"
      xlink:href="#BlockStmt"
      xlink:title="BlockStmt">
      <rect x="51" y="443" width="82" height="32"/>
      <rect x="49" y="441" width="82" height="32" class="nonterminal"/>
      <text class="nonterminal" x="59" y="461">BlockStmt</text>
   </a>
   <a xmlns:xlink="http://www.w3.org/1999/xlink"
      xlink:href="#ExprStmt"
      xlink:title="ExprStmt">
      <rect x="51" y="487" width="78" height="32"/>
      <rect x="49" y="485" width="78" height="32" class="nonterminal"/>
      <text class="nonterminal" x="59" y="505">ExprStmt</text>
   </a>
   <path class="line"
         d="m17 17 h2 m20 0 h10 m90 0 h10 m0 0 h66 m-196 0 h20 m176 0 h20 m-216 0 q10 0 10 10 m196 0 q0 -10 10 -10 m-206 10 v24 m196 0 v-24 m-196 24 q0 10 10 10 m176 0 q10 0 10 -10 m-186 10 h10 m80 0 h10 m0 0 h76 m-186 -10 v20 m196 0 v-20 m-196 20 v24 m196 0 v-24 m-196 24 q0 10 10 10 m176 0 q10 0 10 -10 m-186 10 h10 m58 0 h10 m0 0 h98 m-186 -10 v20 m196 0 v-20 m-196 20 v24 m196 0 v-24 m-196 24 q0 10 10 10 m176 0 q10 0 10 -10 m-186 10 h10 m84 0 h10 m0 0 h72 m-186 -10 v20 m196 0 v-20 m-196 20 v24 m196 0 v-24 m-196 24 q0 10 10 10 m176 0 q10 0 10 -10 m-186 10 h10 m100 0 h10 m0 0 h56 m-186 -10 v20 m196 0 v-20 m-196 20 v24 m196 0 v-24 m-196 24 q0 10 10 10 m176 0 q10 0 10 -10 m-186 10 h10 m110 0 h10 m0 0 h46 m-186 -10 v20 m196 0 v-20 m-196 20 v24 m196 0 v-24 m-196 24 q0 10 10 10 m176 0 q10 0 10 -10 m-186 10 h10 m104 0 h10 m0 0 h52 m-186 -10 v20 m196 0 v-20 m-196 20 v24 m196 0 v-24 m-196 24 q0 10 10 10 m176 0 q10 0 10 -10 m-186 10 h10 m88 0 h10 m0 0 h68 m-186 -10 v20 m196 0 v-20 m-196 20 v24 m196 0 v-24 m-196 24 q0 10 10 10 m176 0 q10 0 10 -10 m-186 10 h10 m92 0 h10 m0 0 h64 m-186 -10 v20 m196 0 v-20 m-196 20 v24 m196 0 v-24 m-196 24 q0 10 10 10 m176 0 q10 0 10 -10 m-186 10 h10 m156 0 h10 m-186 -10 v20 m196 0 v-20 m-196 20 v24 m196 0 v-24 m-196 24 q0 10 10 10 m176 0 q10 0 10 -10 m-186 10 h10 m82 0 h10 m0 0 h74 m-186 -10 v20 m196 0 v-20 m-196 20 v24 m196 0 v-24 m-196 24 q0 10 10 10 m176 0 q10 0 10 -10 m-186 10 h10 m78 0 h10 m0 0 h78 m23 -484 h-3"/>
   <polygon points="245 17 253 13 253 21"/>
   <polygon points="245 17 237 13 237 21"/>
</svg>
