<?xml version="1.0" encoding="UTF-8"?>
<svg xmlns="http://www.w3.org/2000/svg" width="561" height="53">
   <defs>
      <style type="text/css">
    @namespace "http://www.w3.org/2000/svg";
    .line                 {fill: none; stroke: #000033; stroke-width: 1;}
    .bold-line            {stroke: #E0E0FF; shape-rendering: crispEdges; stroke-width: 2;}
    .thin-line            {stroke: #00001F; shape-rendering: crispEdges}
    .filled               {fill: #000033; stroke: none;}
    text.terminal         {font-family: Verdana, Sans-serif;
                            font-size: 12px;
                            fill: #E0E0FF;
                            font-weight: bold;
                          }
    text.nonterminal      {font-family: Verdana, Sans-serif;
                            font-size: 12px;
                            fill: #00001A;
                            font-weight: normal;
                          }
    text.regexp           {font-family: Verdana, Sans-serif;
                            font-size: 12px;
                            fill: #00001F;
                            font-weight: normal;
                          }
    rect, circle, polygon {fill: #000033; stroke: #000033;}
    rect.terminal         {fill: #4D4DFF; stroke: #000033; stroke-width: 1;}
    rect.nonterminal      {fill: #9E9EFF; stroke: #000033; stroke-width: 1;}
    rect.text             {fill: none; stroke: none;}
    polygon.regexp        {fill: #C7C7FF; stroke: #000033; stroke-width: 1;}
  </style>
   </defs>
   <polygon points="9 33 1 29 1 37"/>
   <polygon points="17 33 9 29 9 37"/>
   <rect x="31" y="19" width="38" height="32" rx="10"/>
   <rect x="29"
         y="17"
         width="38"
         height="32"
         class="terminal"
         rx="10"/>
   <text class="terminal" x="39" y="37">try</text>
   <a xmlns:xlink="http://www.w3.org/1999/xlink"
      xlink:href="#block"
      xlink:title="block">
      <rect x="89" y="19" width="52" height="32"/>
      <rect x="87" y="17" width="52" height="32" class="nonterminal"/>
      <text class="nonterminal" x="97" y="37">block</text>
   </a>
   <rect x="181" y="19" width="56" height="32" rx="10"/>
   <rect x="179"
         y="17"
         width="56"
         height="32"
         class="terminal"
         rx="10"/>
   <text class="terminal" x="189" y="37">catch</text>
   <rect x="257" y="19" width="26" height="32" rx="10"/>
   <rect x="255"
         y="17"
         width="26"
         height="32"
         class="terminal"
         rx="10"/>
   <text class="terminal" x="265" y="37">(</text>
   <a xmlns:xlink="http://www.w3.org/1999/xlink"
      xlink:href="#IDENTIFIER"
      xlink:title="IDENTIFIER">
      <rect x="303" y="19" width="92" height="32"/>
      <rect x="301" y="17" width="92" height="32" class="nonterminal"/>
      <text class="nonterminal" x="311" y="37">IDENTIFIER</text>
   </a>
   <rect x="415" y="19" width="26" height="32" rx="10"/>
   <rect x="413"
         y="17"
         width="26"
         height="32"
         class="terminal"
         rx="10"/>
   <text class="terminal" x="423" y="37">)</text>
   <a xmlns:xlink="http://www.w3.org/1999/xlink"
      xlink:href="#block"
      xlink:title="block">
      <rect x="461" y="19" width="52" height="32"/>
      <rect x="459" y="17" width="52" height="32" class="nonterminal"/>
      <text class="nonterminal" x="469" y="37">block</text>
   </a>
   <path class="line"
         d="m17 33 h2 m0 0 h10 m38 0 h10 m0 0 h10 m52 0 h10 m20 0 h10 m56 0 h10 m0 0 h10 m26 0 h10 m0 0 h10 m92 0 h10 m0 0 h10 m26 0 h10 m0 0 h10 m52 0 h10 m-372 0 l20 0 m-1 0 q-9 0 -9 -10 l0 -12 q0 -10 10 -10 m352 32 l20 0 m-20 0 q10 0 10 -10 l0 -12 q0 -10 -10 -10 m-352 0 h10 m0 0 h342 m23 32 h-3"/>
   <polygon points="551 33 559 29 559 37"/>
   <polygon points="551 33 543 29 543 37"/>
</svg>
