<?xml version="1.0" encoding="UTF-8"?>
<svg xmlns="http://www.w3.org/2000/svg" width="297" height="37">
   <defs>
      <style type="text/css">
    @namespace "http://www.w3.org/2000/svg";
    .line                 {fill: none; stroke: #000033; stroke-width: 1;}
    .bold-line            {stroke: #E0E0FF; shape-rendering: crispEdges; stroke-width: 2;}
    .thin-line            {stroke: #00001F; shape-rendering: crispEdges}
    .filled               {fill: #000033; stroke: none;}
    text.terminal         {font-family: Verdana, Sans-serif;
                            font-size: 12px;
                            fill: #E0E0FF;
                            font-weight: bold;
                          }
    text.nonterminal      {font-family: Verdana, Sans-serif;
                            font-size: 12px;
                            fill: #00001A;
                            font-weight: normal;
                          }
    text.regexp           {font-family: Verdana, Sans-serif;
                            font-size: 12px;
                            fill: #00001F;
                            font-weight: normal;
                          }
    rect, circle, polygon {fill: #000033; stroke: #000033;}
    rect.terminal         {fill: #4D4DFF; stroke: #000033; stroke-width: 1;}
    rect.nonterminal      {fill: #9E9EFF; stroke: #000033; stroke-width: 1;}
    rect.text             {fill: none; stroke: none;}
    polygon.regexp        {fill: #C7C7FF; stroke: #000033; stroke-width: 1;}
  </style>
   </defs>
   <polygon points="9 17 1 13 1 21"/>
   <polygon points="17 17 9 13 9 21"/>
   <rect x="31" y="3" width="56" height="32" rx="10"/>
   <rect x="29"
         y="1"
         width="56"
         height="32"
         class="terminal"
         rx="10"/>
   <text class="terminal" x="39" y="21">while</text>
   <a xmlns:xlink="http://www.w3.org/1999/xlink"
      xlink:href="#expression"
      xlink:title="expression">
      <rect x="107" y="3" width="90" height="32"/>
      <rect x="105" y="1" width="90" height="32" class="nonterminal"/>
      <text class="nonterminal" x="115" y="21">expression</text>
   </a>
   <a xmlns:xlink="http://www.w3.org/1999/xlink"
      xlink:href="#block"
      xlink:title="block">
      <rect x="217" y="3" width="52" height="32"/>
      <rect x="215" y="1" width="52" height="32" class="nonterminal"/>
      <text class="nonterminal" x="225" y="21">block</text>
   </a>
   <path class="line"
         d="m17 17 h2 m0 0 h10 m56 0 h10 m0 0 h10 m90 0 h10 m0 0 h10 m52 0 h10 m3 0 h-3"/>
   <polygon points="287 17 295 13 295 21"/>
   <polygon points="287 17 279 13 279 21"/>
</svg>
